<svg width="250" height="100" viewBox="0 0 250 100" fill="none" xmlns="http://www.w3.org/2000/svg">
<path d="M45.4209 75.7284C45.6293 75.7118 45.8407 75.6983 46.0552 75.6847C45.8422 75.6968 45.6323 75.7088 45.4224 75.7239C45.4224 75.7239 45.4224 75.7269 45.4209 75.7284Z" fill="white"/>
<path d="M60.6006 32.4251C60.6006 33.838 61.2963 34.984 62.154 34.984C62.1825 34.984 62.211 34.9795 62.2395 34.9765C62.7073 34.3914 63.0102 33.467 63.0102 32.4251C63.0102 31.3831 62.7073 30.4587 62.2395 29.8736C62.211 29.8706 62.1825 29.8661 62.154 29.8661C61.2963 29.8661 60.6006 31.0121 60.6006 32.4251Z" fill="white"/>
<path d="M60.2381 25.9982C60.1737 25.9243 60.1077 25.8519 60.0402 25.7841C60.1092 25.8534 60.1752 25.9243 60.2381 25.9982Z" fill="white"/>
<path d="M45.5593 32.6799C45.5099 33.6178 45.7048 34.4969 46.0737 35.2162C46.0137 34.2089 46.1321 33.1549 46.459 32.1506C47.0258 30.4044 48.0934 29.186 49.3004 28.6959C49.2104 28.6808 49.119 28.6703 49.026 28.6657C47.2327 28.5737 45.6808 30.3712 45.5593 32.6814V32.6799Z" fill="white"/>
<path d="M64.4287 68.4753C64.1558 71.063 63.4691 74.6971 62.7944 77.2078C62.7749 77.2802 62.7419 77.4008 62.7224 77.4702C63.2712 77.5848 63.745 77.722 63.8649 77.7582C64.0344 77.4204 64.2233 76.9047 64.4167 76.2789C65.048 74.2522 65.7407 71.0464 66.0211 68.8041C66.5939 64.2456 62.0326 58.9286 62.0326 58.9286C61.8017 58.9678 61.5693 58.9995 61.3369 59.0251C62.8963 61.4167 64.7826 65.0915 64.4272 68.4753H64.4287Z" fill="#C4C4C4"/>
<path d="M62.2412 34.9764C62.3942 34.9629 62.5426 34.9116 62.6805 34.8302C62.7495 34.7894 62.817 34.7412 62.8815 34.6854C62.9459 34.6296 63.0074 34.5663 63.0659 34.4969C63.1049 34.4502 63.1424 34.4019 63.1784 34.3491C63.2503 34.2451 63.3178 34.1305 63.3763 34.0053C63.4662 33.8183 63.5397 33.6118 63.5952 33.3886C63.6327 33.2393 63.6612 33.084 63.6807 32.9226C63.6896 32.8427 63.6972 32.7598 63.7031 32.6768C63.7091 32.5939 63.7106 32.5095 63.7106 32.4235C63.7106 32.2953 63.7046 32.1702 63.6942 32.0465C63.6837 31.9229 63.6672 31.8037 63.6462 31.6876C63.5607 31.2217 63.3973 30.8115 63.1799 30.4994C63.1439 30.4481 63.1064 30.3983 63.0674 30.3516C63.0089 30.2822 62.9474 30.2189 62.883 30.1631C62.8185 30.1073 62.751 30.0591 62.682 30.0183C62.5441 29.9369 62.3957 29.8856 62.2427 29.8721C62.7105 30.4571 63.0134 31.3815 63.0134 32.4235C63.0134 33.4655 62.7105 34.3898 62.2427 34.9749L62.2412 34.9764Z" fill="#C4C4C4"/>
<path d="M51.0145 23.5855C55.5278 23.6157 59.2584 26.5154 60.197 30.3697C60.218 30.3335 60.239 30.2943 60.2615 30.2596C60.3694 30.0862 60.4909 29.9264 60.6213 29.7786C60.6648 29.7304 60.7098 29.6821 60.7563 29.6369C60.8492 29.5449 60.9452 29.4604 61.0457 29.3835C61.1461 29.3066 61.2511 29.2357 61.359 29.1739C61.503 29.091 61.6544 29.0216 61.8104 28.9673C61.7069 28.6793 61.587 28.3988 61.455 28.1244C61.41 28.0324 61.365 27.9419 61.3186 27.853C61.1956 27.5589 61.0622 27.2709 60.9137 26.998C60.8147 26.8155 60.7098 26.6406 60.5973 26.4732C60.4849 26.3058 60.3649 26.1475 60.2375 25.9997C60.173 25.9258 60.107 25.8534 60.0396 25.7856C59.9301 25.6755 59.8221 25.57 59.7142 25.4689C59.6062 25.3679 59.4998 25.2699 59.3933 25.1764C59.1804 24.9894 58.9705 24.8175 58.7605 24.6607C58.6556 24.5823 58.5506 24.5069 58.4457 24.4345C58.2357 24.2897 58.0243 24.16 57.8099 24.0394C57.5955 23.9203 57.3796 23.8117 57.1592 23.7122C56.7168 23.5146 56.258 23.3563 55.7677 23.2236C55.3988 23.1241 55.0135 23.0381 54.6026 22.9612C54.0119 22.8496 53.4031 22.7878 52.7793 22.7833C51.6623 22.7757 50.5542 22.9748 49.4986 23.3307C49.3502 23.3804 49.2032 23.4332 49.0563 23.489C48.8374 23.5719 48.6199 23.6609 48.407 23.7589C48.1941 23.8569 47.9842 23.9625 47.7803 24.0786C48.7924 23.7529 49.8825 23.578 51.016 23.5855H51.0145Z" fill="#C4C4C4"/>
<path d="M60.6209 29.7786C60.4892 29.9248 60.3695 30.0862 60.2617 30.2596C60.3695 30.0862 60.4907 29.9263 60.6209 29.7786Z" fill="#C4C4C4"/>
<path d="M61.0456 29.3834C60.9454 29.4603 60.8481 29.5463 60.7568 29.6368C60.8496 29.5448 60.9454 29.4603 61.0456 29.3834Z" fill="#C4C4C4"/>
<path d="M61.745 50.6469C61.8695 50.7253 61.9879 50.8037 62.1064 50.8852C62.1648 50.9259 62.2233 50.9681 62.2833 51.0103C62.3418 51.0526 62.4002 51.0963 62.4602 51.143C62.7331 51.3541 63.012 51.5577 63.2954 51.7553C63.5728 51.9483 63.8532 52.1383 64.1396 52.3207C64.426 52.5032 64.7184 52.6766 65.0152 52.8364C65.7919 53.2511 66.4412 53.8483 67.1894 54.3022C67.9811 54.7832 68.7908 55.231 69.6185 55.6472C69.9034 55.7905 70.1898 55.9292 70.4776 56.0634C70.5376 56.0921 70.5946 56.1207 70.6516 56.1509C70.7085 56.181 70.764 56.2127 70.821 56.2444C70.908 56.2941 71.0084 56.3122 71.1014 56.3454C71.1329 56.356 71.1629 56.3695 71.1914 56.3861C71.2543 56.4178 71.3158 56.4464 71.3758 56.4751C71.4343 56.5037 71.4913 56.5309 71.5452 56.5565C71.7971 56.6772 71.9936 56.7676 72.121 56.8249C72.157 56.8415 72.1885 56.8551 72.214 56.8672C72.2635 56.8898 72.2904 56.9003 72.2904 56.9003V56.8928C70.3847 55.5975 61.4961 48.7906 61.4961 48.7906L61.7465 50.6499L61.745 50.6469Z" fill="#C4C4C4"/>
<path d="M72.4362 56.9999C72.4 56.9682 72.3518 56.932 72.29 56.8898C72.3352 56.9275 72.385 56.9637 72.4362 56.9999Z" fill="#C4C4C4"/>
<path d="M40.9234 47.3988C41.79 47.8979 42.6177 48.4619 43.2265 49.243C43.4814 49.5717 43.6898 49.9276 43.8652 50.3016C43.9702 50.5263 44.0632 50.757 44.1486 50.9907C44.2056 51.1475 44.2581 51.3059 44.3061 51.4657C44.4545 51.9452 44.576 52.4353 44.6929 52.9194C44.6929 52.9797 44.6929 53.043 44.6944 53.1094C44.6944 53.1757 44.6974 53.2436 44.6989 53.3144C44.7034 53.4562 44.7094 53.6055 44.7169 53.7608C44.7649 54.6957 44.8863 55.8448 45.0768 56.5746C45.2522 57.2456 45.4786 57.1717 46.2403 57.2004C46.2988 57.2019 46.3633 57.2049 46.4278 57.2079C46.3468 55.8508 46.0949 53.0038 45.3662 51.3994C44.387 49.24 40.9219 47.4003 40.9219 47.4003L40.9234 47.3988Z" fill="#C4C4C4"/>
<path d="M44.6917 52.9193C44.5735 52.4353 44.4523 51.9452 44.3057 51.4657C44.4538 51.9452 44.575 52.4353 44.6917 52.9193Z" fill="#C4C4C4"/>
<path d="M29.5277 41.3129H29.7166L29.7151 40.859L29.7121 40.2L29.6956 36.7333L24.2617 37.2113L24.6726 39.8215C24.707 40.0402 24.7805 40.2438 24.887 40.4247C25.0639 40.7278 25.3293 40.9706 25.6457 41.1214C25.8721 41.2284 26.124 41.2903 26.3879 41.2918L28.0478 41.3023L29.5277 41.3114V41.3129Z" fill="#24FFAB"/>
<path d="M23.7111 30.6019C23.6766 30.6516 23.6436 30.7044 23.6136 30.7587C23.5536 30.8657 23.5057 30.9804 23.4712 31.0995C23.4532 31.1598 23.4382 31.2201 23.4277 31.2819C23.4052 31.4056 23.3962 31.5338 23.4022 31.6634C23.4052 31.7283 23.4112 31.7946 23.4217 31.861L24.0035 35.5675H24.0275L29.6893 35.0669L29.6683 30.5868L29.6653 29.8826H29.6563L28.7701 29.8765L25.1595 29.8524C25.1595 29.8524 25.1565 29.8524 25.1535 29.8524C25.098 29.8524 25.0441 29.8554 24.9901 29.86C24.9691 29.8615 24.9481 29.8645 24.9286 29.8675C24.8941 29.872 24.8596 29.8765 24.8267 29.8826C24.8027 29.8871 24.7802 29.8916 24.7562 29.8961C24.7262 29.9037 24.6962 29.9112 24.6662 29.9188C24.6422 29.9248 24.6197 29.9323 24.5957 29.9399C24.5643 29.9504 24.5358 29.9625 24.5058 29.9731C24.3573 30.0319 24.2179 30.1088 24.0919 30.2038C23.945 30.3154 23.816 30.4496 23.7111 30.6004V30.6019Z" fill="#24FFAB"/>
<path d="M24.667 29.9199C24.6964 29.911 24.7259 29.9036 24.7554 29.8977C24.7259 29.9051 24.6964 29.9125 24.667 29.9199Z" fill="#24FFAB"/>
<path d="M24.5059 29.9741C24.5353 29.9622 24.5648 29.9504 24.5942 29.9415C24.5633 29.9519 24.5353 29.9637 24.5059 29.9741Z" fill="#24FFAB"/>
<path d="M31.4653 34.9101L37.4435 34.3838L37.8169 31.9229C37.8559 31.6605 37.8349 31.4056 37.7659 31.1704C37.7314 31.0528 37.6834 30.9397 37.625 30.8326C37.4975 30.5989 37.3161 30.3968 37.0987 30.243C37.0522 30.2098 37.0042 30.1797 36.9547 30.1525H36.9517C36.9022 30.1224 36.8513 30.0968 36.7988 30.0741C36.7478 30.0515 36.6968 30.0319 36.6443 30.0153C36.6383 30.0138 36.6323 30.0108 36.6263 30.0093C36.5739 29.9927 36.5199 29.9776 36.4644 29.9656C36.4119 29.9535 36.3579 29.946 36.3025 29.9399C36.292 29.9399 36.28 29.9369 36.2695 29.9369C36.214 29.9309 36.1585 29.9279 36.1015 29.9279L32.6889 29.9052L31.4443 29.8977V30.3501L31.4668 34.9146L31.4653 34.9101Z" fill="#24FFAB"/>
<path d="M36.625 30.0078C36.625 30.0078 36.6373 30.0109 36.6435 30.014C36.6373 30.0124 36.6312 30.0094 36.625 30.0078Z" fill="#24FFAB"/>
<path d="M31.4896 39.9239L31.4941 40.895V41.3262L34.8753 41.3489C35.4496 41.3534 35.9669 41.0759 36.2908 40.6431C36.2908 40.6431 36.2908 40.6431 36.2893 40.6431C36.2938 40.6371 36.2982 40.6326 36.3027 40.6266C36.4212 40.4622 36.5127 40.2782 36.5696 40.0762C36.5891 40.0083 36.6026 39.9404 36.6146 39.8696L37.1889 36.0741L31.4746 36.5777L31.4896 39.9254V39.9239Z" fill="#24FFAB"/>
<path d="M24.2631 37.2158L24.2607 37.2112L24.2631 37.2158Z" fill="white"/>
<path d="M24.0283 35.5646L29.6901 35.067L24.0283 35.5646Z" fill="white"/>
<path d="M54.4412 40.5648C53.3451 40.7684 52.1501 40.8347 50.9011 40.8272C50.4812 40.8242 50.0689 40.8031 49.6641 40.7654C49.703 40.7729 49.7405 40.7789 49.7735 40.7835C51.7168 41.0926 53.702 41.1348 55.6558 40.9071C56.335 40.8287 56.8853 40.696 57.4386 40.4819C57.6095 40.4155 57.7804 40.3416 57.9574 40.2602C58.1103 40.1878 58.2602 40.12 58.4222 40.0325C59.4268 39.4942 60.1255 38.7734 60.5874 37.8777C60.7103 37.6394 60.8168 37.3876 60.9067 37.1237C60.9532 36.9895 60.9967 36.8523 61.0342 36.7105C61.0567 36.6291 61.0717 36.5341 61.0927 36.4421C61.1137 36.3501 61.1391 36.2596 61.1826 36.1858C61.2051 36.1466 61.2636 36.1013 61.3206 36.0546C61.3551 36.0274 61.388 35.9988 61.4135 35.9731C61.436 35.9505 61.4525 35.9279 61.4555 35.9083C61.466 35.854 61.4495 35.8058 61.4165 35.762C61.4 35.7394 61.379 35.7183 61.3551 35.6972C61.3311 35.6761 61.3041 35.6565 61.2756 35.6369C61.2186 35.5977 61.1541 35.5615 61.0927 35.5253C61.0312 35.4891 60.9742 35.4529 60.9292 35.4152C60.7958 35.3021 60.6713 35.1785 60.5589 35.0458C60.4464 34.9131 60.3429 34.7713 60.2515 34.6235C59.6277 38.4597 57.3936 40.0129 54.4412 40.5618V40.5648Z" fill="#C4C4C4"/>
<path d="M61.1806 36.1888C61.2031 36.1496 61.2614 36.1044 61.3183 36.0576C61.2614 36.1029 61.2031 36.1496 61.1806 36.1888Z" fill="#C4C4C4"/>
<path d="M29.5883 26.7054C29.3274 26.4732 29.092 26.2771 28.8371 26.2063C28.5732 26.1324 28.3708 26.2334 28.3213 26.3028C28.2509 26.4023 28.2434 26.6013 28.3018 26.8773C28.4698 27.675 28.9961 28.4998 29.7833 29.1995L29.8402 29.2508C29.8762 29.2825 29.9362 29.3383 30.0022 29.3925L30.2691 28.0595C30.3201 27.8032 30.347 27.6373 30.2931 27.4925C30.2001 27.2483 29.8462 26.9346 29.5883 26.7069V26.7054Z" fill="#532D77"/>
<path d="M31.7129 29.0292C32.701 28.6612 33.4927 28.0837 33.941 27.4021C34.0955 27.1669 34.1629 26.9784 34.1329 26.8592C34.1119 26.7763 33.9605 26.6104 33.6876 26.5833C33.6606 26.5803 33.6336 26.5788 33.6066 26.5788C33.3667 26.5772 33.1013 26.6677 32.8059 26.7763C32.4821 26.8954 32.0382 27.0598 31.8628 27.2543C31.7579 27.3704 31.7234 27.5348 31.6769 27.7911L31.4385 29.1287C31.5194 29.1015 31.5959 29.0729 31.6409 29.0563L31.7129 29.0292Z" fill="#532D77"/>
<path d="M55.5414 27.7248C54.4213 27.0312 53.0718 26.621 51.6144 26.612C47.6934 26.5864 44.4727 29.459 44.4727 33.0283C44.4727 35.6883 45.5672 37.4676 47.2721 38.4855C48.4461 39.1761 49.9051 39.5079 51.4945 39.5184C55.4154 39.5441 58.6362 38.6091 58.6362 33.1021C58.6362 30.8734 57.4142 28.901 55.5414 27.7264V27.7248ZM46.4594 32.1491C46.1325 33.1534 46.0141 34.2075 46.074 35.2148C45.7052 34.4955 45.5103 33.6179 45.5597 32.6784C45.6797 30.3683 47.2316 28.5708 49.0264 28.6628C49.1194 28.6673 49.2108 28.6779 49.3008 28.6929C48.0938 29.183 47.0262 30.4029 46.4594 32.1476V32.1491Z" fill="#532D77"/>
<path d="M65.5019 41.8149L65.5364 41.6461C65.6144 41.2781 65.7013 40.8604 65.6159 40.4427C65.4449 39.6103 64.5138 39.2424 63.8136 38.9649C62.8045 38.5653 61.7294 38.2034 60.6183 37.8913C60.6123 37.8898 60.6003 37.8868 60.5853 37.8807C60.1235 38.7765 59.4248 39.4972 58.4201 40.0356C58.2582 40.1215 58.1083 40.1909 57.9553 40.2633C57.7799 40.3462 57.609 40.4201 57.4365 40.4849C57.4365 40.4849 57.438 40.4849 57.4395 40.4849C57.8009 41.2661 58.4157 42.768 58.4546 44.0211C58.5101 45.7989 59.5282 45.6195 59.5282 45.6195C59.5282 45.6195 60.4159 45.7235 60.2794 44.291C60.173 43.1781 60.0605 41.8617 59.5777 40.8499C59.8626 40.9479 60.1445 41.061 60.4219 41.1861C61.5105 41.6747 62.5421 42.2899 63.4882 43.0153C63.8226 43.2716 64.112 43.6139 64.3879 43.9622C64.4538 43.8733 64.5243 43.7843 64.5963 43.6923C64.7357 43.5159 64.8812 43.3334 65.0101 43.1344C65.301 42.6895 65.421 42.2191 65.5004 41.818L65.5019 41.8149Z" fill="#532D77"/>
<path d="M82.1504 39.5666C81.9839 39.3465 81.8115 39.1323 81.6346 38.9212C79.2565 36.0923 76.1947 35.2087 72.8869 33.7988C69.1114 32.1868 67.3226 29.2026 64.9355 26.0962C63.595 24.35 62.6069 22.5571 60.8481 21.206C59.1537 19.9046 57.2614 18.8702 55.2552 18.1268C51.2832 16.655 46.9529 16.3504 42.7635 16.842C31.3349 18.1826 18.3724 25.3513 16.8535 37.7782C16.5281 40.4367 16.6331 43.9411 17.5462 46.473C18.9437 50.3484 23.6909 51.9513 28.1786 53.1682C30.9661 53.9237 33.8824 55.3155 34.4342 58.4008C34.7716 60.2902 33.2797 64.8004 33.1087 66.6869C32.8523 69.5384 33.4821 72.4954 34.8091 75.0936C35.0565 75.5792 35.3279 76.0527 35.6233 76.5111C35.8227 76.8202 36.0341 77.1218 36.2545 77.4158C37.3101 77.1007 38.4527 76.8051 39.6822 76.5518C40.8952 73.3489 44.3259 62.6501 45.0337 59.5423C45.0801 59.3387 45.1146 59.1668 45.1371 59.0326C45.1491 58.9602 45.1566 58.8969 45.1611 58.8471C45.1611 58.8305 46.7205 58.93 47.3698 58.9481C47.3787 59.114 47.4477 59.2693 47.5632 59.4081C47.8226 59.7187 48.3189 59.9343 48.8992 59.9494L49.9083 59.9796C49.9083 59.9796 55.3782 60.1138 55.4022 60.1138C55.7995 60.1138 56.3963 60.0535 56.6902 59.877C57.002 59.6885 57.224 59.4096 57.2389 59.1351C57.2389 59.1351 58.4895 59.1366 58.9603 59.1351C59.2227 59.1351 59.4941 59.1321 59.77 59.1246C60.2798 59.1125 60.8076 59.0869 61.3369 59.0296C61.5693 59.0039 61.8017 58.9723 62.0326 58.9331C62.0326 58.9331 66.5924 64.25 66.0211 68.8085C65.7392 71.0508 65.048 74.2567 64.4167 76.2834C64.2218 76.9077 64.0328 77.4249 63.8649 77.7627C63.8649 77.7627 63.8649 77.7627 63.8649 77.7642C64.8755 78.0054 66.5549 78.5498 67.9433 79.0293C68.0123 78.9931 68.0813 78.9584 68.1502 78.9207C70.053 77.8969 71.8448 76.6845 73.4942 75.3107C76.2756 72.9946 78.7512 70.2908 80.5595 67.1498C82.4952 63.7886 84.1041 59.8665 85.0982 56.1223C86.5782 50.5474 85.692 44.2322 82.1504 39.5681V39.5666ZM62.241 29.8736C62.394 29.8872 62.5424 29.9385 62.6804 30.0199C62.7493 30.0606 62.8168 30.1088 62.8813 30.1646C62.9458 30.2204 63.0072 30.2838 63.0657 30.3531C63.1047 30.3999 63.1422 30.4481 63.1782 30.5009C63.3956 30.8131 63.559 31.2232 63.6445 31.6892C63.6655 31.8053 63.682 31.9259 63.6925 32.0481C63.703 32.1717 63.709 32.2969 63.709 32.425C63.709 32.511 63.706 32.5954 63.7015 32.6784C63.697 32.7613 63.6895 32.8442 63.679 32.9242C63.6595 33.0855 63.631 33.2408 63.5935 33.3901C63.538 33.6133 63.4646 33.8199 63.3746 34.0069C63.3146 34.1305 63.2486 34.2466 63.1767 34.3507C63.1407 34.4019 63.1032 34.4517 63.0642 34.4985C63.0057 34.5678 62.9443 34.6311 62.8798 34.6869C62.8153 34.7427 62.7478 34.791 62.6789 34.8317C62.5409 34.9131 62.3925 34.9644 62.2395 34.978C62.211 34.981 62.1825 34.9855 62.1541 34.9855C61.2964 34.9855 60.6007 33.8395 60.6007 32.4265C60.6007 31.0136 61.2964 29.8676 62.1541 29.8676C62.1825 29.8676 62.211 29.8721 62.2395 29.8751L62.241 29.8736ZM77.0913 53.975C76.0942 54.6098 74.6623 54.4409 74.079 55.6669C74.4688 55.8312 74.8737 56.0046 75.1675 56.3515C76.3476 58.259 73.6336 57.8443 72.4356 57.0014C72.3846 56.9652 72.3351 56.929 72.2902 56.8913V56.8988C72.2902 56.8988 72.2647 56.8868 72.2137 56.8657C72.1882 56.8551 72.1582 56.84 72.1207 56.8235C71.9933 56.7646 71.7968 56.6742 71.5449 56.555C71.491 56.5294 71.434 56.5023 71.3755 56.4736C71.317 56.445 71.2556 56.4148 71.1911 56.3846C71.1626 56.3681 71.1326 56.356 71.1011 56.3439C71.0081 56.3108 70.9062 56.2927 70.8207 56.2429C70.7637 56.2112 70.7083 56.1796 70.6513 56.1494C70.5943 56.1192 70.5373 56.0906 70.4774 56.0619C70.1895 55.9262 69.9031 55.7875 69.6182 55.6458C68.7905 55.2296 67.9793 54.7817 67.1891 54.3007C66.4409 53.8468 65.7917 53.2511 65.015 52.835C64.7166 52.6751 64.4257 52.5017 64.1393 52.3192C63.8529 52.1368 63.571 51.9468 63.2951 51.7538C63.0117 51.5562 62.7328 51.3527 62.4599 51.1415C62.4015 51.0963 62.3415 51.0526 62.283 51.0089C62.2245 50.9666 62.1661 50.9244 62.1061 50.8837C61.9876 50.8023 61.8692 50.7238 61.7447 50.6454C61.7597 50.9063 61.8122 51.1687 61.8347 51.4296C61.9351 52.5469 61.9681 53.6688 62.0011 54.7892C62.0161 55.2884 62.0311 55.7905 61.9921 56.2881C61.9666 56.6123 61.9441 56.9773 61.8422 57.2879C61.7612 57.5367 58.341 57.5292 57.4084 57.5216C57.3289 56.6938 57.032 56.2489 55.9779 56.1992L49.5319 56.0454C48.2784 55.9865 47.3952 56.3424 47.4117 57.0692L47.4027 57.2336C47.1973 57.2381 46.7805 57.217 46.4296 57.2034C46.3636 57.2004 46.3007 57.1974 46.2422 57.1959C45.4805 57.1688 45.2526 57.2411 45.0786 56.5701C44.8882 55.8388 44.7668 54.6912 44.7188 53.7563C44.7113 53.601 44.7053 53.4502 44.7008 53.31C44.6993 53.2391 44.6978 53.1712 44.6963 53.1049C44.6963 53.0385 44.6948 52.9752 44.6948 52.9149C44.5763 52.4308 44.4549 51.9408 44.3079 51.4612C44.2585 51.3014 44.206 51.1431 44.1505 50.9862C44.0665 50.751 43.9721 50.5203 43.8671 50.2971C43.6917 49.9231 43.4832 49.5673 43.2283 49.2385C42.6196 48.4574 41.7919 47.8935 40.9252 47.3943C40.6478 47.2345 40.3659 47.0807 40.0856 46.9299C39.1379 46.4157 38.5232 46.1186 37.526 45.7024C36.5199 45.2787 35.5093 44.87 34.4807 44.5006C33.5931 44.1824 32.6979 43.8854 31.7952 43.6124C31.3439 43.4752 30.8926 43.335 30.4368 43.2188C30.0649 43.1238 29.6496 43.1751 29.2687 43.154C28.9628 43.1374 28.6555 43.1193 28.3496 43.1027C27.8368 43.0741 27.318 43.0439 26.8307 42.8856C26.3433 42.7273 25.8815 42.4212 25.6491 41.9658C25.5367 41.7471 25.4857 41.4591 25.5861 41.2284C25.5966 41.2058 25.6191 41.165 25.6476 41.1183C25.3312 40.9675 25.0658 40.7247 24.8889 40.4216C24.7824 40.2392 24.709 40.0356 24.6745 39.8185L24.2651 37.2112V37.2082L24.0057 35.5646L23.424 31.8581C23.4135 31.7917 23.4075 31.7254 23.4045 31.6605C23.3985 31.5308 23.4075 31.4027 23.43 31.279C23.4405 31.2172 23.4555 31.1569 23.4734 31.0965C23.5094 30.9774 23.5574 30.8628 23.6159 30.7558C23.6459 30.7015 23.6774 30.6502 23.7134 30.5989C23.7658 30.5235 23.8243 30.4527 23.8888 30.3863C23.9533 30.32 24.0222 30.2581 24.0957 30.2023C24.1692 30.1465 24.2472 30.0968 24.3296 30.0531C24.3701 30.0319 24.4136 30.0108 24.4556 29.9927C24.4736 29.9852 24.4916 29.9792 24.5096 29.9731C24.5395 29.9611 24.5695 29.949 24.5995 29.94C24.622 29.9324 24.646 29.9264 24.67 29.9188C24.7 29.9098 24.73 29.9023 24.76 29.8962C24.7824 29.8917 24.8064 29.8857 24.8304 29.8827C24.8634 29.8766 24.8979 29.8721 24.9324 29.8676C24.9534 29.8646 24.9729 29.8615 24.9939 29.86C25.0478 29.8555 25.1018 29.8525 25.1573 29.8525C25.1573 29.8525 25.1603 29.8525 25.1618 29.8525H25.1633L28.7754 29.8766L29.6586 29.8827H29.6661C28.0632 29.3926 27.3435 28.0837 27.141 27.1216C27.0091 26.4973 27.0796 26.0058 27.3555 25.6197C27.7243 25.104 28.4665 24.8763 29.1593 25.0693C29.6556 25.2065 30.0199 25.5051 30.3813 25.8233C30.5837 26.0027 30.8116 26.2063 31.0096 26.437C31.3814 26.045 31.9422 25.8369 32.395 25.6695C32.8478 25.5021 33.2962 25.3573 33.809 25.4086C34.5257 25.481 35.1345 25.959 35.2889 26.5742C35.4044 27.0342 35.2889 27.5167 34.9395 28.0505C34.4447 28.803 33.1957 29.6972 31.4444 29.8947H31.4459L32.6919 29.9023L36.1046 29.9249C36.1616 29.9249 36.2155 29.9294 36.271 29.9339C36.2815 29.9339 36.2935 29.9369 36.304 29.9369C36.4165 29.9505 36.5244 29.9746 36.6279 30.0078C36.6339 30.0093 36.6399 30.0108 36.6459 30.0138C36.7538 30.05 36.8573 30.0953 36.9533 30.1496H36.9563C37.2397 30.3124 37.4736 30.5492 37.628 30.8312C37.6865 30.9382 37.7345 31.0513 37.7689 31.1689C37.8394 31.4042 37.8604 31.6605 37.8199 31.9214L37.4466 34.3823H37.4451L37.1887 36.0712H37.1902L36.6159 39.8667C36.6054 39.9376 36.5904 40.0054 36.5709 40.0733C36.5139 40.2754 36.4225 40.4593 36.304 40.6237C36.2995 40.6297 36.295 40.6342 36.2905 40.6403C36.37 40.6403 36.4465 40.6418 36.5169 40.6403C37.4856 40.6403 38.4392 40.5181 39.4048 40.6297C40.0061 40.6991 40.6119 40.7292 41.2161 40.7519C42.5866 40.5754 43.9766 40.3779 45.368 40.2542C45.368 40.2542 46.8495 42.3819 47.1149 44.1417C47.3802 45.9015 48.3714 45.6029 48.3714 45.6029C48.3714 45.6029 49.265 45.6029 48.9591 44.1945C48.6548 42.7906 48.3024 41.0489 47.2558 40.1427C47.2678 40.1427 47.2783 40.1427 47.2903 40.1427C46.9904 40.0356 46.704 39.9195 46.4566 39.7943C44.8867 38.9966 43.0904 37.1931 43.0934 31.8596C43.0934 31.4208 43.1444 30.9669 43.2134 30.5371C43.3558 29.6429 43.6392 28.7728 44.047 27.9646C44.176 27.7097 44.3184 27.4609 44.4714 27.2196V24.0801C44.1715 23.9866 43.9526 23.7107 43.9526 23.3804C43.9526 22.9733 44.2839 22.6431 44.6933 22.6431C45.1026 22.6431 45.434 22.9733 45.434 23.3804C45.434 23.7107 45.2151 23.9851 44.9152 24.0801V26.5803C45.6724 25.582 46.6335 24.7391 47.7221 24.1088C47.7401 24.0982 47.7596 24.0892 47.7791 24.0786C47.983 23.9625 48.1929 23.8569 48.4059 23.7589C48.6188 23.6609 48.8362 23.5719 49.0551 23.489C49.202 23.4332 49.349 23.3819 49.4974 23.3307C50.553 22.9748 51.6611 22.7758 52.7782 22.7833C53.4019 22.7878 54.0122 22.8496 54.6015 22.9612C55.0123 23.0381 55.3977 23.1241 55.7665 23.2236C56.2583 23.3563 56.7172 23.5146 57.158 23.7122C57.3784 23.8102 57.5958 23.9188 57.8087 24.0394C58.0232 24.1585 58.2346 24.2897 58.4445 24.4345C58.5494 24.5069 58.6544 24.5823 58.7594 24.6607C58.9693 24.8175 59.1807 24.9894 59.3921 25.1764C59.4986 25.2699 59.605 25.3664 59.713 25.4689C59.821 25.57 59.9289 25.6755 60.0384 25.7856C60.1073 25.855 60.1733 25.9258 60.2363 25.9997C60.3638 26.1475 60.4837 26.3073 60.5962 26.4747C60.7086 26.6421 60.8136 26.817 60.9125 26.9995C61.061 27.2724 61.1944 27.5589 61.3174 27.8545C61.3639 27.945 61.4104 28.0354 61.4538 28.1259C61.5858 28.4004 61.7057 28.6808 61.8092 28.9688C61.6533 29.0231 61.5018 29.0925 61.3579 29.1754C61.2499 29.2373 61.1449 29.3081 61.0445 29.385C60.944 29.4619 60.8466 29.5479 60.7551 29.6384C60.7086 29.6836 60.6636 29.7319 60.6202 29.7801C60.4882 29.9264 60.3682 30.0877 60.2603 30.2612C60.2378 30.2973 60.2183 30.335 60.1958 30.3712C59.8584 30.9533 59.656 31.659 59.65 32.4235C59.6455 33.1142 59.812 33.8078 60.1403 34.42C60.1748 34.4834 60.2018 34.5512 60.2393 34.6115C60.2423 34.6176 60.2468 34.6221 60.2498 34.6281C60.3413 34.7759 60.4447 34.9177 60.5572 35.0504C60.6696 35.1831 60.7941 35.3067 60.9275 35.4198C60.9725 35.4575 61.0295 35.4937 61.091 35.5299C61.1524 35.5661 61.2154 35.6038 61.2739 35.6415C61.3024 35.6611 61.3294 35.6807 61.3534 35.7018C61.3774 35.7229 61.3984 35.744 61.4148 35.7666C61.4478 35.8119 61.4643 35.8601 61.4538 35.9129C61.4493 35.9325 61.4343 35.9551 61.4118 35.9777C61.3864 36.0034 61.3534 36.032 61.3189 36.0592C61.2619 36.1044 61.2034 36.1512 61.1809 36.1904C61.1375 36.2642 61.112 36.3547 61.091 36.4467C61.07 36.5387 61.055 36.6337 61.0325 36.7151C60.9935 36.8569 60.9515 36.9926 60.905 37.1283C62.187 37.4947 63.3086 37.8732 64.3222 38.2788C65.4618 38.7373 66.1365 39.2635 66.4484 39.9361C66.7618 40.6116 66.6883 41.5948 66.2295 42.8569C66.078 43.2731 65.8291 43.6381 65.4993 44.0588C65.4663 44.101 65.4288 44.1462 65.3913 44.193C65.2609 44.3513 65.1139 44.5323 65.006 44.7328C65.4273 45.2395 65.8471 45.7462 66.2655 46.2558C67.411 47.6492 68.5506 49.047 69.6932 50.4434C70.3334 51.226 70.9422 52.0719 71.6529 52.7942C71.9483 53.3808 72.1492 54.0051 72.2707 54.655C72.3186 54.7591 72.3726 54.5842 72.3846 54.5389C72.5945 53.9855 72.6785 53.0792 72.4626 52.6088C73.6771 51.511 77.3162 50.0619 77.8845 52.3283C77.9955 52.9933 77.5861 53.6492 77.0883 53.9765L77.0913 53.975Z" fill="#532B77"/>
<path d="M42.7502 78.5528C41.7186 78.595 40.753 78.6644 39.8444 78.7473C39.0617 78.8197 38.3209 78.9026 37.6162 78.9886C37.6567 79.0293 37.6972 79.0715 37.7392 79.1122C42.6753 83.9693 49.1873 83.7461 55.6932 82.9047C57.7969 82.6317 59.8571 82.1809 61.8574 81.5581C58.7041 80.3563 54.996 79.1529 50.2518 78.7383C47.4059 78.4894 44.9334 78.4638 42.7517 78.5543L42.7502 78.5528Z" fill="#532D77"/>
<path d="M53.4094 75.8913C54.4964 76.027 55.4606 76.1642 56.3887 76.315C56.7276 76.3708 57.062 76.4281 57.3963 76.4885C57.7052 75.0966 58.0951 70.983 58.0936 69.8324C58.0936 69.5293 58.0411 69.1976 57.9496 68.8523C57.9406 68.8327 57.9286 68.8146 57.9226 68.7935C57.1924 66.331 55.8009 63.7931 51.7315 65.2649C51.2442 65.4413 50.8469 65.8243 50.496 66.2963C49.7358 67.3232 49.202 68.611 48.6037 69.7329C47.5751 71.6631 46.2811 73.6626 45.4204 75.7254C45.4204 75.7254 45.4204 75.7285 45.4189 75.73C45.6274 75.7134 45.8388 75.6998 46.0532 75.6862C48.2933 75.5475 50.8034 75.5671 53.4094 75.8928V75.8913Z" fill="#532D77"/>
<path d="M63.8647 77.7581C63.7448 77.7219 63.271 77.5862 62.7222 77.4701C62.7417 77.4007 62.7747 77.2786 62.7941 77.2077C63.4689 74.697 64.1556 71.0629 64.4285 68.4753C64.7839 65.0929 62.8976 61.4166 61.3382 59.025C60.8104 59.0838 60.2811 59.1095 59.7713 59.12C59.4954 59.126 59.224 59.1291 58.9616 59.1306C58.4908 59.1321 57.2403 59.1306 57.2403 59.1306C57.2253 59.405 57.0034 59.6855 56.6915 59.8725C56.3976 60.0504 55.7993 60.1092 55.4035 60.1092C55.3795 60.1092 49.9096 59.975 49.9096 59.975L48.9005 59.9449C48.3202 59.9298 47.8239 59.7141 47.5645 59.4035C47.4491 59.2663 47.3801 59.1095 47.3711 58.9436C46.7218 58.9255 45.1639 58.826 45.1624 58.8426C45.1579 58.8923 45.1504 58.9556 45.1384 59.028C45.1174 59.1622 45.0815 59.3341 45.035 59.5377C44.3258 62.6456 40.8951 73.3429 39.6835 76.5472C38.454 76.8006 37.3115 77.0961 36.2559 77.4113C36.7417 78.0944 37.6143 78.9856 37.6143 78.9856C38.3191 78.8996 39.0598 78.8167 39.8425 78.7443C40.7526 78.6614 41.7183 78.592 42.7484 78.5498C44.93 78.4593 47.4026 78.4849 50.2485 78.7337C54.9926 79.1484 58.7022 80.3533 61.854 81.5536C61.854 81.5536 64.6804 80.6322 67.9402 79.0218C66.5517 78.5422 64.8723 77.9979 63.8617 77.7566C63.8617 77.7566 63.8617 77.7566 63.8617 77.7551L63.8647 77.7581ZM57.3962 76.4884C57.0619 76.4281 56.7275 76.3708 56.3886 76.315C55.459 76.1642 54.4948 76.027 53.4093 75.8913C50.8033 75.5656 48.2932 75.546 46.0531 75.6847C45.8402 75.6983 45.6273 75.7118 45.4188 75.7284C45.4188 75.7284 45.4188 75.7254 45.4203 75.7239C46.281 73.661 47.575 71.6615 48.6036 69.7314C49.2019 68.6095 49.7342 67.3202 50.4959 66.2948C50.8467 65.8213 51.2426 65.4398 51.7314 65.2633C55.8008 63.7916 57.1923 66.3295 57.9225 68.7919C57.9285 68.813 57.9405 68.8311 57.9495 68.8507C58.041 69.1976 58.0934 69.5278 58.0934 69.8309C58.0934 70.9814 57.7051 75.0951 57.3962 76.4869V76.4884Z" fill="white"/>
<path d="M29.7184 41.3142L29.5283 41.3127H29.5957L29.7184 41.3142Z" fill="white"/>
<path d="M77.8877 52.3253C77.3194 50.0589 73.6788 51.5095 72.4658 52.6058C72.6817 53.0763 72.5977 53.9825 72.3878 54.536C72.3743 54.5812 72.3218 54.7561 72.2738 54.6521C72.1524 54.0022 71.9515 53.3794 71.6561 52.7913C70.9453 52.069 70.3366 51.2215 69.6963 50.4404C68.5538 49.0441 67.4142 47.6462 66.2686 46.2529C65.8503 45.7447 65.4305 45.2365 65.0091 44.7299C65.1171 44.5278 65.2625 44.3483 65.3945 44.19C65.432 44.1433 65.4695 44.0995 65.5024 44.0558C65.8308 43.6351 66.0812 43.2702 66.2327 42.854C66.69 41.5933 66.7635 40.6102 66.4516 39.9331C66.1412 39.2606 65.465 38.7343 64.3254 38.2759C63.3118 37.8687 62.1902 37.4918 60.9082 37.1253C60.8182 37.3892 60.7118 37.6395 60.5888 37.8793C60.6038 37.8838 60.6158 37.8883 60.6218 37.8899C61.7329 38.202 62.808 38.5639 63.8171 38.9635C64.5173 39.241 65.4485 39.6104 65.6194 40.4413C65.7064 40.8605 65.6179 41.2767 65.5399 41.6446L65.5054 41.8135C65.426 42.2146 65.306 42.6851 65.0151 43.1299C64.8862 43.329 64.7407 43.5099 64.6013 43.6879C64.5278 43.7799 64.4588 43.8688 64.3929 43.9578C64.117 43.6095 63.8291 43.2672 63.4932 43.0108C62.5471 42.2855 61.5155 41.6702 60.4269 41.1817C60.148 41.0565 59.8676 40.9434 59.5827 40.8454C60.0655 41.8572 60.178 43.1752 60.2845 44.2865C60.4209 45.7206 59.5332 45.615 59.5332 45.615C59.5332 45.615 58.5136 45.7945 58.4597 44.0166C58.4207 42.765 57.8059 41.2616 57.4445 40.4805C57.4445 40.4805 57.443 40.4805 57.4415 40.4805C56.8883 40.6946 56.338 40.8258 55.6587 40.9057C53.705 41.1319 51.7197 41.0912 49.7765 40.7821C49.7435 40.7776 49.706 40.77 49.667 40.764C50.0719 40.8002 50.4842 40.8228 50.9041 40.8258C52.1531 40.8333 53.3481 40.7685 54.4442 40.5634C57.3966 40.0145 59.6307 38.4629 60.2545 34.6252C60.2515 34.6191 60.247 34.6146 60.244 34.6086C60.2065 34.5468 60.1795 34.4804 60.145 34.4171C59.8166 33.8064 59.6502 33.1127 59.6547 32.4206C59.6592 31.656 59.8631 30.9503 60.2005 30.3683C59.2618 26.514 55.5313 23.6127 51.018 23.5841C49.8845 23.5765 48.7944 23.7514 47.7823 24.0772C47.7643 24.0877 47.7448 24.0968 47.7253 24.1073C46.6367 24.7376 45.6756 25.5806 44.9184 26.5788V24.0787C45.2182 23.9852 45.4372 23.7092 45.4372 23.379C45.4372 22.9718 45.1058 22.6416 44.6965 22.6416C44.2871 22.6416 43.9557 22.9718 43.9557 23.379C43.9557 23.7092 44.1747 23.9837 44.4745 24.0787V27.2182C44.3216 27.4595 44.1792 27.7083 44.0502 27.9631C43.6409 28.7714 43.359 29.6414 43.2165 30.5356C43.1475 30.9654 43.0966 31.4193 43.0966 31.8581C43.0936 37.1902 44.8884 38.9952 46.4598 39.7929C46.7072 39.918 46.9936 40.0356 47.2935 40.1412C47.2815 40.1412 47.271 40.1412 47.259 40.1412C48.3056 41.0475 48.6579 42.7891 48.9623 44.193C49.2682 45.6014 48.3745 45.6014 48.3745 45.6014C48.3745 45.6014 47.3834 45.9 47.118 44.1403C46.8526 42.3805 45.3727 40.2543 45.3712 40.2528C43.9797 40.3749 42.5898 40.574 41.2193 40.7504C40.6135 40.7278 40.0093 40.6976 39.408 40.6283C38.4439 40.5167 37.4887 40.6388 36.5201 40.6388C36.4481 40.6418 36.3717 40.6403 36.2937 40.6388C35.9713 41.0731 35.454 41.3491 34.8782 41.3445L31.4985 41.3219L30.1595 41.3099H29.7202H29.5973H29.5313L28.0514 41.3008L26.3915 41.2902C26.1276 41.2887 25.8757 41.2269 25.6493 41.1199H25.6463C25.6178 41.1666 25.5953 41.2073 25.5848 41.2299C25.4828 41.4622 25.5353 41.7502 25.6478 41.9673C25.8817 42.4212 26.342 42.7273 26.8293 42.8872C27.3166 43.0455 27.8369 43.0756 28.3482 43.1043C28.6541 43.1209 28.9615 43.139 29.2674 43.1556C29.6497 43.1767 30.0636 43.1254 30.4354 43.2204C30.8913 43.3365 31.3441 43.4768 31.7939 43.614C32.6966 43.8869 33.5917 44.184 34.4794 44.5022C35.508 44.8716 36.5201 45.2803 37.5247 45.704C38.5203 46.1217 39.1351 46.4187 40.0842 46.9314C40.3646 47.0837 40.645 47.236 40.9239 47.3959C40.9239 47.3959 44.3891 49.2371 45.3682 51.3949C46.0969 52.9994 46.3488 55.8464 46.4298 57.2035C46.7822 57.2186 47.199 57.2397 47.4029 57.2337L47.4119 57.0693C47.3954 56.3425 48.2786 55.9851 49.5321 56.0454L55.9781 56.1992C57.0337 56.249 57.3291 56.6938 57.4086 57.5217C58.3427 57.5292 61.7629 57.5352 61.8423 57.2879C61.9428 56.9758 61.9668 56.6124 61.9923 56.2882C62.0313 55.7891 62.0163 55.2884 62.0013 54.7893C61.9683 53.6689 61.9353 52.547 61.8349 51.4296C61.8109 51.1687 61.7599 50.9064 61.7449 50.6455L61.4945 48.7862C61.4945 48.7862 70.3846 55.5915 72.2888 56.8883C72.3503 56.9306 72.3983 56.9668 72.4343 56.9984C73.6323 57.8414 76.3463 58.256 75.1662 56.3485C74.8723 56.0017 74.4675 55.8283 74.0776 55.6639C74.6594 54.4379 76.0914 54.6083 77.09 53.972C77.5878 53.6433 77.9971 52.9873 77.8862 52.3238L77.8877 52.3253ZM47.2725 38.4855C45.5676 37.4691 44.473 35.6883 44.473 33.0283C44.473 29.459 47.6938 26.5864 51.6148 26.612C53.0737 26.621 54.4217 27.0312 55.5418 27.7249C57.4146 28.8995 58.6366 30.8719 58.6366 33.1006C58.6366 38.6076 55.4158 39.5426 51.4948 39.5169C49.9069 39.5064 48.4465 39.1746 47.2725 38.484V38.4855Z" fill="white"/>
<path d="M31.4652 34.9101L31.4442 30.3455V29.8932L29.6644 29.8811L29.6674 30.5838L29.6884 35.0639L24.0265 35.563C24.019 35.5645 24.2589 37.2082 24.2589 37.2082V37.2112L24.2604 37.2082L29.6944 36.7302L29.7109 40.1969L29.7138 40.8559V41.3113H30.1547L31.4937 41.3233V40.8921L31.4877 39.9209L31.4727 36.5733L37.187 36.0697L37.4434 34.3808L31.4652 34.9071V34.9101Z" fill="white"/>
<path d="M35.2855 26.5728C35.1311 25.959 34.5223 25.4795 33.8056 25.4071C33.2928 25.3559 32.8445 25.5021 32.3916 25.668C31.9388 25.8354 31.378 26.0435 31.0062 26.4355C30.8082 26.2033 30.5803 25.9998 30.3779 25.8218C30.018 25.5021 29.6522 25.2051 29.1559 25.0679C28.4616 24.8763 27.7209 25.1025 27.3521 25.6182C27.0762 26.0043 27.0057 26.4959 27.1376 27.1202C27.3416 28.0822 28.0598 29.3896 29.6612 29.8812C29.6612 29.8812 29.6627 29.8812 29.6642 29.8812H29.6657L31.4425 29.8932H31.441C31.4725 29.8902 31.501 29.8842 31.5325 29.8812C33.2358 29.664 34.4518 28.7879 34.9361 28.049C35.287 27.5152 35.401 27.0327 35.2855 26.5728ZM28.3012 26.8774C28.2427 26.6014 28.2502 26.4024 28.3207 26.3029C28.3702 26.2335 28.5726 26.134 28.8365 26.2063C29.0899 26.2757 29.3253 26.4732 29.5877 26.7055C29.8456 26.9332 30.1995 27.2468 30.2924 27.4911C30.3479 27.6374 30.3209 27.8032 30.2684 28.0581L30.0015 29.3911C29.9356 29.3368 29.8756 29.2825 29.8396 29.2494L29.7826 29.1981C28.9954 28.4984 28.4691 27.6736 28.3012 26.8759V26.8774ZM33.942 27.4021C33.4937 28.0837 32.702 28.6628 31.7139 29.0292L31.6419 29.0563C31.5969 29.0729 31.5205 29.1031 31.4395 29.1287L31.6779 27.7912C31.7229 27.5348 31.7589 27.3705 31.8638 27.2544C32.0393 27.0598 32.4831 26.8955 32.807 26.7763C33.1024 26.6678 33.3677 26.5773 33.6077 26.5788C33.6346 26.5788 33.6616 26.5803 33.6886 26.5833C33.9615 26.6105 34.1145 26.7763 34.134 26.8593C34.1639 26.9784 34.098 27.1654 33.942 27.4021Z" fill="white"/>
<path d="M130.352 30.7632C130.243 30.3998 130.091 30.0786 129.903 29.8087C129.708 29.5313 129.472 29.3066 129.205 29.1437C128.925 28.9718 128.619 28.8859 128.298 28.8859H120.381C120.363 28.8859 120.317 28.8859 120.242 28.7833C120.17 28.6853 120.135 28.5692 120.135 28.4305C120.135 28.2782 120.17 28.1621 120.239 28.0716C120.312 27.9736 120.363 27.9736 120.381 27.9736H129.1C129.303 27.9736 129.592 27.9012 129.831 27.5604C130 27.3191 130.085 27.0281 130.085 26.6933C130.085 26.3586 130 26.0675 129.831 25.8263C129.591 25.4855 129.301 25.4131 129.1 25.4131H120.41C120.087 25.4131 119.784 25.5005 119.507 25.6725C119.246 25.8353 119.014 26.06 118.819 26.3375C118.631 26.6059 118.48 26.9225 118.37 27.2799C118.261 27.6328 118.207 28.0203 118.207 28.4305C118.207 28.8406 118.263 29.2282 118.37 29.581C118.48 29.9384 118.631 30.2551 118.819 30.5235C119.014 30.8009 119.245 31.0241 119.507 31.1885C119.783 31.3604 120.086 31.4478 120.408 31.4478H128.354C128.37 31.4478 128.414 31.4478 128.483 31.5444C128.552 31.6439 128.586 31.769 128.586 31.9244C128.586 32.0631 128.553 32.1762 128.487 32.2667C128.418 32.3601 128.373 32.3602 128.354 32.3602H119.619C119.419 32.3602 119.129 32.4325 118.889 32.7733C118.72 33.0146 118.634 33.3071 118.634 33.6404C118.634 33.9736 118.72 34.2662 118.889 34.5075C119.129 34.8482 119.419 34.9206 119.619 34.9206H128.295C128.615 34.9206 128.917 34.8377 129.196 34.6763C129.466 34.5195 129.703 34.2978 129.9 34.0174C130.088 33.7474 130.24 33.4293 130.348 33.0749C130.456 32.7221 130.511 32.3345 130.511 31.9244C130.511 31.5142 130.456 31.1251 130.349 30.7648L130.352 30.7632Z" fill="white"/>
<path d="M151.569 27.2769C151.46 26.9196 151.306 26.6014 151.111 26.3315C150.911 26.054 150.674 25.8323 150.409 25.6695C150.13 25.4976 149.824 25.4116 149.502 25.4116H140.925C140.724 25.4116 140.433 25.4825 140.195 25.8248C140.027 26.0661 139.941 26.3586 139.941 26.6919C139.941 27.0251 140.027 27.3177 140.195 27.5589C140.435 27.8997 140.724 27.9721 140.925 27.9721H149.559C149.577 27.9721 149.622 27.9721 149.698 28.0746C149.77 28.1727 149.805 28.2888 149.805 28.429C149.805 28.5798 149.77 28.6974 149.703 28.7864C149.626 28.8844 149.577 28.8844 149.559 28.8844H141.957C141.652 28.8844 141.37 28.9658 141.118 29.1242C140.88 29.275 140.669 29.4815 140.489 29.7364C140.313 29.9882 140.175 30.2868 140.081 30.6246C139.988 30.9548 139.941 31.3092 139.941 31.6756V33.6374C139.941 33.9722 140.027 34.2632 140.195 34.5045C140.403 34.8031 140.772 34.9101 141.046 34.9101C141.321 34.9101 141.694 34.785 141.895 34.509C142.071 34.2662 142.159 33.9722 142.159 33.6374V31.8716C142.159 31.7389 142.159 31.3378 142.194 31.2473C142.225 31.1674 142.271 31.1327 142.348 31.1327H149.518C149.857 31.1327 150.445 30.9548 150.865 30.6276C151.187 30.3757 151.437 30.0033 151.568 29.5781C151.677 29.2252 151.731 28.8377 151.731 28.4275C151.731 28.0173 151.676 27.6298 151.568 27.2769H151.569Z" fill="white"/>
<path d="M191.665 32.3572H183.619C183.354 32.3572 183.151 32.2953 182.998 32.1702C182.827 32.0284 182.689 31.852 182.59 31.6469C182.485 31.4283 182.412 31.187 182.375 30.9277C182.334 30.6532 182.313 30.3954 182.313 30.1646C182.313 29.9339 182.334 29.6761 182.375 29.4016C182.413 29.1407 182.485 28.898 182.59 28.6823C182.691 28.4773 182.829 28.3008 183 28.1591C183.151 28.0339 183.354 27.9721 183.619 27.9721H191.665C191.866 27.9721 192.157 27.8997 192.397 27.5589C192.565 27.3177 192.65 27.0251 192.65 26.6919C192.65 26.3586 192.565 26.0661 192.395 25.8248C192.155 25.484 191.866 25.4116 191.665 25.4116H183.318C182.836 25.4116 182.401 25.573 182.025 25.8896C181.673 26.1852 181.37 26.5697 181.122 27.0296C180.881 27.4805 180.697 27.9917 180.571 28.5466C180.448 29.097 180.385 29.6414 180.385 30.1646C180.385 30.6879 180.445 31.2519 180.563 31.7917C180.682 32.3361 180.856 32.8412 181.082 33.2921C181.313 33.7535 181.599 34.138 181.931 34.4336C182.291 34.7548 182.709 34.9177 183.174 34.9177H191.663C191.864 34.9177 192.155 34.8453 192.395 34.5045C192.563 34.2617 192.649 33.9707 192.649 33.6374C192.649 33.3042 192.563 33.0116 192.394 32.7704C192.154 32.4296 191.864 32.3572 191.663 32.3572H191.665Z" fill="white"/>
<path d="M213.213 32.3572H204.192C204.149 32.3572 204.128 32.3466 204.102 32.3165C204.063 32.2682 204.046 32.2154 204.046 32.1461V31.4449H212.895C213.096 31.4449 213.387 31.3725 213.627 31.0317C213.796 30.7904 213.882 30.4979 213.882 30.1646C213.882 29.8314 213.796 29.5404 213.627 29.2976C213.387 28.9568 213.098 28.8844 212.895 28.8844H203.288C202.897 28.8844 202.609 28.9673 202.404 29.1362C202.182 29.3202 202.072 29.6369 202.072 30.1028V31.941C202.072 32.3798 202.129 32.7809 202.245 33.1368C202.359 33.4911 202.507 33.8003 202.686 34.0551C202.87 34.319 203.087 34.5286 203.332 34.6794C203.588 34.8377 203.854 34.9177 204.117 34.9177H213.208C213.409 34.9177 213.7 34.8453 213.94 34.5045C214.108 34.2632 214.194 33.9707 214.194 33.6374C214.194 33.3042 214.108 33.0116 213.939 32.7704C213.699 32.4296 213.409 32.3572 213.208 32.3572H213.213Z" fill="white"/>
<path d="M203.062 27.9721H213.213C213.414 27.9721 213.705 27.8997 213.944 27.5589C214.113 27.3177 214.198 27.0251 214.198 26.6919C214.198 26.3586 214.113 26.0661 213.944 25.8248C213.704 25.484 213.414 25.4116 213.213 25.4116H203.062C202.861 25.4116 202.57 25.4825 202.332 25.8248C202.163 26.0661 202.077 26.3586 202.077 26.6919C202.077 27.0251 202.163 27.3192 202.332 27.5589C202.57 27.8997 202.861 27.9721 203.062 27.9721Z" fill="white"/>
<path d="M171.219 33.1594C171.174 33.0478 171.127 32.9347 171.069 32.8035L167.59 26.1625C167.406 25.8066 167.161 25.5232 166.865 25.3181C166.235 24.8868 165.461 24.9004 164.845 25.3558C164.543 25.579 164.296 25.8715 164.113 26.2243L162.383 29.5493H162.273V29.7605L160.654 32.8713C160.521 33.0613 160.456 33.3117 160.456 33.6359C160.456 33.9601 160.542 34.2617 160.711 34.5029C160.951 34.8437 161.24 34.9161 161.443 34.9161C161.672 34.9161 161.997 34.8256 162.234 34.3913L163.696 31.6228H168.072L169.508 34.3582C169.728 34.8196 170.072 34.9161 170.321 34.9161C170.522 34.9161 170.811 34.8437 171.051 34.5029C171.22 34.2617 171.306 33.9691 171.306 33.6359C171.306 33.4624 171.277 33.3011 171.22 33.1578L171.219 33.1594ZM166.982 29.5493H164.791L165.601 28.0143C165.649 27.9238 165.718 27.8182 165.808 27.7006C165.86 27.6343 165.881 27.6297 165.879 27.6282C165.879 27.6282 165.902 27.6328 165.953 27.6991C166.043 27.8152 166.121 27.9253 166.175 28.0128L166.98 29.5463L166.982 29.5493Z" fill="white"/>
<path d="M96.396 39.3524H109.633C112.122 39.3524 114.085 40.1742 115.526 41.8179C116.965 43.463 117.686 45.7144 117.686 48.575C117.686 50.285 117.427 51.814 116.908 53.1621C116.389 54.5102 115.647 55.5793 114.678 56.368C115.808 57.0586 116.706 58.1187 117.374 59.5497C118.042 60.9807 118.376 62.6169 118.376 64.4581C118.376 66.2992 118.036 67.9354 117.356 69.3664C116.677 70.7974 115.715 71.9073 114.47 72.6959C113.226 73.4846 111.809 73.8796 110.219 73.8796H96.3945V39.3524H96.396ZM107.387 52.7188C108.054 52.7188 108.573 52.4896 108.942 52.0281C109.311 51.5682 109.495 50.9107 109.495 50.0557C109.495 49.2007 109.311 48.5433 108.942 48.0834C108.573 47.6234 108.054 47.3927 107.387 47.3927H104.449V52.7203H107.387V52.7188ZM107.837 65.7398C108.528 65.7398 109.063 65.5015 109.444 65.025C109.825 64.5485 110.014 63.8835 110.014 63.027C110.014 62.1705 109.823 61.4573 109.444 60.9807C109.063 60.5042 108.528 60.266 107.837 60.266H104.449V65.7413H107.837V65.7398Z" fill="white"/>
<path d="M194.368 71.9149C192.743 70.7477 191.498 69.0589 190.634 66.8512C189.771 64.6436 189.339 62.0198 189.339 58.9783V39.345H197.445V58.354C197.445 61.4589 198.341 63.0105 200.136 63.0105C201.931 63.0105 202.828 61.4589 202.828 58.354V39.345H210.968V58.9783C210.968 62.0183 210.536 64.6421 209.673 66.8512C208.809 69.0589 207.558 70.7477 205.922 71.9149C204.285 73.082 202.357 73.6671 200.138 73.6671C197.919 73.6671 195.995 73.082 194.369 71.9149H194.368Z" fill="white"/>
<path d="M216.065 70.2772C214.302 68.2354 213.42 65.3794 213.42 61.7076H221.104C221.104 62.7842 221.304 63.6061 221.703 64.1761C222.102 64.7461 222.679 65.0311 223.433 65.0311C224.076 65.0311 224.574 64.8486 224.929 64.4852C225.283 64.1218 225.462 63.6076 225.462 62.9426C225.462 62.1192 225.156 61.4467 224.547 60.925C223.937 60.4032 222.967 59.984 221.637 59.6673C218.887 59.0023 216.858 57.8156 215.549 56.1071C214.24 54.3986 213.586 52.0885 213.586 49.1766C213.586 45.918 214.423 43.353 216.098 41.4862C217.773 39.6193 220.073 38.6859 223 38.6859C224.995 38.6859 226.73 39.1443 228.206 40.0627C229.68 40.981 230.822 42.3019 231.632 44.027C232.442 45.7521 232.857 47.7697 232.879 50.0799H225.361C225.361 49.0349 225.166 48.2372 224.78 47.6823C224.391 47.1288 223.842 46.8514 223.133 46.8514C222.512 46.8514 222.024 47.0414 221.67 47.4214C221.314 47.8014 221.137 48.3081 221.137 48.9399C221.137 49.6999 221.421 50.3166 221.986 50.7916C222.551 51.2666 223.534 51.6934 224.929 52.0734C227.834 52.865 229.957 54.0985 231.299 55.7769C232.641 57.4552 233.311 59.7171 233.311 62.5656C233.311 65.9524 232.446 68.5943 230.716 70.4943C228.985 72.3928 226.568 73.3428 223.465 73.3428C220.361 73.3428 217.827 72.3219 216.063 70.2802L216.065 70.2772Z" fill="white"/>
<path d="M184.771 39.8108H177.631L177.71 56.1613H177.553L169.054 39.8108H163.184V72.9884H170.322L170.244 56.389H170.363L178.943 72.9884H184.771V39.8108Z" fill="white"/>
<path d="M157.495 52.8997C154.72 56.4418 151.06 60.1151 146.884 63.5201C142.575 67.0351 138.102 69.9303 134.021 71.9238C136.803 73.3156 140.003 73.9429 143.32 73.5539C152.426 72.4878 158.948 64.1986 157.888 55.0394C157.803 54.3081 157.668 53.5948 157.495 52.8997Z" fill="#24FFAB"/>
<path d="M160.445 40.7714C159.357 34.8482 149.402 39.3841 146.136 41.0835L148.217 42.2084C151.771 40.3552 154.275 41.2403 151.461 44.4915C151.458 44.4884 151.455 44.4869 151.452 44.4839C149.751 47.0007 147.976 49.2972 146.144 51.2711C146.165 51.2968 146.187 51.3194 146.21 51.345C145.659 51.8954 145.087 52.4353 144.506 52.963C136.781 60.6219 128.894 63.9378 126.714 64.7566C126.714 64.7566 126.714 64.7566 126.714 64.7581C123.61 66.4153 122.402 65.0371 125.329 61.1165L124.612 58.7354C114.26 71.8183 120.426 76.6015 134.076 69.3453C142.116 65.028 149.799 58.6887 155.424 51.6873C157.743 48.5734 160.651 44.7493 160.447 40.7699L160.445 40.7714Z" fill="white"/>
<path d="M126.714 64.7581C129.864 63.7387 134.725 60.6882 134.099 61.0878C133.646 60.5796 133.196 58.8244 133.196 57.5939C133.076 50.0557 141.261 45.642 146.145 51.2711C147.977 49.2972 149.754 47.0006 151.453 44.4839C150.183 43.4268 148.219 42.2084 148.219 42.2084L146.137 41.0835C134.893 37.3091 123.184 47.1182 124.612 58.7369L125.129 60.6474C125.129 60.6474 125.81 63.3693 126.712 64.7581H126.714Z" fill="#24FFAB"/>
</svg>
