<svg width="107" height="107" viewBox="0 0 107 107" fill="none" xmlns="http://www.w3.org/2000/svg">
<mask id="mask0_459_2678" style="mask-type:alpha" maskUnits="userSpaceOnUse" x="0" y="0" width="107" height="107">
<circle cx="53.5" cy="53.5" r="53.5" fill="#D9D9D9"/>
</mask>
<g mask="url(#mask0_459_2678)">
<circle cx="53.5" cy="53.5" r="53.5" fill="white"/>
<path d="M79.1846 47.0782C79.1846 51.5563 81.3896 55.1885 84.1079 55.1885C84.1982 55.1885 84.2885 55.1742 84.3788 55.1647C85.8615 53.3103 86.8215 50.3806 86.8215 47.0782C86.8215 43.7757 85.8615 40.846 84.3788 38.9917C84.2885 38.9821 84.1982 38.9678 84.1079 38.9678C81.3896 38.9678 79.1846 42.6 79.1846 47.0782Z" fill="black"/>
<path d="M78.0355 26.7096C77.8311 26.4755 77.6221 26.2461 77.4082 26.031C77.6268 26.2508 77.8359 26.4755 78.0355 26.7096Z" fill="black"/>
<path d="M31.5123 47.8869C31.3555 50.8596 31.9733 53.6459 33.1424 55.9256C32.9523 52.733 33.3277 49.3923 34.3637 46.2094C36.16 40.675 39.5437 36.8134 43.3692 35.2601C43.0841 35.2123 42.7942 35.1789 42.4996 35.1645C36.8159 34.873 31.8973 40.5698 31.5123 47.8917V47.8869Z" fill="black"/>
<path d="M84.3848 55.166C84.8695 55.123 85.34 54.9605 85.7772 54.7024C85.9958 54.5734 86.2096 54.4205 86.414 54.2436C86.6183 54.0668 86.8132 53.8661 86.9985 53.6462C87.1221 53.4981 87.2409 53.3451 87.3549 53.1779C87.583 52.8481 87.7969 52.4849 87.9822 52.0882C88.2674 51.4956 88.5002 50.8408 88.676 50.1335C88.7949 49.6603 88.8851 49.1681 88.9469 48.6567C88.9754 48.4034 88.9992 48.1405 89.0182 47.8777C89.0372 47.6148 89.042 47.3472 89.042 47.0748C89.042 46.6685 89.023 46.2719 88.9897 45.88C88.9564 45.4881 88.9042 45.1105 88.8376 44.7425C88.5668 43.2657 88.0488 41.9657 87.3597 40.9764C87.2456 40.8139 87.1268 40.6562 87.0033 40.5081C86.8179 40.2882 86.6231 40.0875 86.4187 39.9107C86.2144 39.7338 86.0005 39.5809 85.7819 39.4519C85.3447 39.1938 84.8743 39.0313 84.3895 38.9883C85.8722 40.8426 86.8322 43.7723 86.8322 47.0748C86.8322 50.3772 85.8722 53.3069 84.3895 55.1613L84.3848 55.166Z" fill="#3D3D3D"/>
<path d="M48.8014 19.0628C63.1057 19.1583 74.9294 28.3488 77.9043 40.5646C77.9708 40.4499 78.0373 40.3256 78.1086 40.2157C78.4508 39.6661 78.8357 39.1595 79.2492 38.6911C79.387 38.5382 79.5296 38.3853 79.6769 38.2419C79.9715 37.9503 80.2757 37.6827 80.5941 37.439C80.9125 37.1952 81.2451 36.9706 81.5873 36.7746C82.0435 36.5118 82.5235 36.2919 83.0177 36.1199C82.6898 35.2071 82.3096 34.3181 81.8914 33.4483C81.7489 33.1567 81.6063 32.87 81.459 32.588C81.0693 31.6561 80.6463 30.7432 80.1759 29.8782C79.8622 29.2999 79.5296 28.7455 79.1731 28.215C78.8167 27.6845 78.4365 27.1827 78.0326 26.7143C77.8282 26.4801 77.6192 26.2507 77.4053 26.0357C77.0584 25.6868 76.7162 25.3522 76.374 25.032C76.0319 24.7118 75.6945 24.4012 75.3571 24.1049C74.6823 23.5122 74.0169 22.9674 73.3516 22.4704C73.019 22.2218 72.6863 21.9829 72.3536 21.7535C71.6883 21.2947 71.0183 20.8836 70.3387 20.5013C69.6591 20.1237 68.9748 19.7796 68.2762 19.4642C66.8743 18.8381 65.4201 18.3363 63.8661 17.9157C62.697 17.6003 61.4757 17.3279 60.1736 17.0841C58.3012 16.7305 56.3718 16.5345 54.3948 16.5202C50.8544 16.4963 47.3425 17.1272 43.9969 18.2551C43.5264 18.4128 43.0607 18.58 42.5949 18.7569C41.9011 19.0197 41.212 19.3017 40.5372 19.6124C39.8624 19.923 39.1971 20.2576 38.5508 20.6256C41.7586 19.5932 45.2135 19.0389 48.8062 19.0628H48.8014Z" fill="#3D3D3D"/>
<path d="M79.2486 38.6914C78.8312 39.155 78.4518 39.6664 78.1104 40.216C78.4518 39.6664 78.836 39.1598 79.2486 38.6914Z" fill="#3D3D3D"/>
<path d="M80.595 37.439C80.2773 37.6827 79.969 37.9551 79.6797 38.2419C79.9737 37.9503 80.2773 37.6827 80.595 37.439Z" fill="#3D3D3D"/>
<path d="M82.8104 104.832C83.2048 105.081 83.5802 105.329 83.9557 105.587C84.141 105.716 84.3263 105.85 84.5164 105.984C84.7018 106.118 84.8871 106.256 85.0772 106.404C85.9421 107.073 86.826 107.719 87.7242 108.345C88.6034 108.956 89.492 109.559 90.3997 110.137C91.3074 110.715 92.2341 111.265 93.1751 111.771C95.6367 113.086 97.6945 114.978 100.066 116.417C102.575 117.941 105.141 119.361 107.765 120.68C108.667 121.134 109.575 121.574 110.488 121.999C110.678 122.09 110.858 122.181 111.039 122.276C111.219 122.372 111.395 122.472 111.576 122.573C111.851 122.73 112.17 122.788 112.465 122.893C112.564 122.926 112.659 122.969 112.75 123.022C112.949 123.122 113.144 123.213 113.334 123.304C113.52 123.395 113.7 123.481 113.871 123.562C114.67 123.944 115.292 124.231 115.696 124.413C115.81 124.465 115.91 124.508 115.991 124.546C116.148 124.618 116.233 124.652 116.233 124.652V124.628C110.193 120.522 82.0215 98.9487 82.0215 98.9487L82.8151 104.842L82.8104 104.832Z" fill="#3D3D3D"/>
<path d="M16.8192 94.5361C19.566 96.1181 22.1893 97.9055 24.1187 100.381C24.9266 101.423 25.5871 102.551 26.1432 103.736C26.4758 104.448 26.7705 105.18 27.0413 105.92C27.2219 106.417 27.3882 106.919 27.5403 107.426C28.0108 108.946 28.3957 110.499 28.7664 112.033C28.7664 112.224 28.7664 112.425 28.7712 112.635C28.7712 112.845 28.7807 113.061 28.7854 113.285C28.7997 113.734 28.8187 114.208 28.8424 114.7C28.9945 117.663 29.3794 121.305 29.983 123.618C30.539 125.745 31.2566 125.51 33.6707 125.601C33.8561 125.606 34.0604 125.616 34.2648 125.625C34.0082 121.324 33.2098 112.301 30.9002 107.215C27.7969 100.372 16.8145 94.5409 16.8145 94.5409L16.8192 94.5361Z" fill="#3D3D3D"/>
<path d="M3.19629 39.4189C3.19629 39.4189 3.23448 39.4285 3.25358 39.438C3.23448 39.4333 3.21539 39.4237 3.19629 39.4189Z" fill="white"/>
<path d="M59.6622 72.8761C56.1883 73.5213 52.4007 73.7316 48.4421 73.7077C47.1115 73.6982 45.8046 73.6313 44.5215 73.5118C44.645 73.5357 44.7638 73.5548 44.8684 73.5691C51.0273 74.5489 57.3193 74.6827 63.5115 73.961C65.6643 73.7125 67.4084 73.2919 69.162 72.6133C69.7037 72.403 70.2455 72.1688 70.8063 71.9107C71.291 71.6813 71.7662 71.4663 72.2795 71.1891C75.4635 69.4829 77.678 67.1984 79.1417 64.3595C79.5314 63.6044 79.8688 62.8063 80.154 61.9699C80.3013 61.5445 80.4391 61.1096 80.5579 60.6604C80.6292 60.4023 80.6767 60.1012 80.7432 59.8097C80.8098 59.5181 80.8906 59.2314 81.0284 58.9972C81.0997 58.8729 81.285 58.7296 81.4656 58.5814C81.5749 58.4954 81.6794 58.4046 81.7602 58.3233C81.8315 58.2516 81.8838 58.1799 81.8933 58.1178C81.9266 57.9458 81.8743 57.7928 81.7697 57.6542C81.7175 57.5825 81.6509 57.5156 81.5749 57.4487C81.4988 57.3818 81.4133 57.3197 81.323 57.2576C81.1424 57.1333 80.9381 57.0186 80.7432 56.9039C80.5484 56.7892 80.3678 56.6745 80.2253 56.555C79.8023 56.1966 79.4079 55.8047 79.0514 55.3841C78.695 54.9635 78.3671 54.5143 78.0772 54.0459C76.1003 66.2043 69.0194 71.1269 59.6622 72.8666V72.8761Z" fill="#3D3D3D"/>
<path d="M81.0229 59.0086C81.094 58.8843 81.279 58.7409 81.4592 58.5928C81.279 58.7362 81.094 58.8843 81.0229 59.0086Z" fill="#3D3D3D"/>
<path d="M63.1496 32.1809C59.5997 29.9825 55.3226 28.6825 50.7034 28.6539C38.2762 28.5726 28.0684 37.6771 28.0684 48.9896C28.0684 57.4202 31.5375 63.0597 36.9408 66.2857C40.6619 68.4746 45.2858 69.526 50.3232 69.5594C62.7504 69.6407 72.9583 66.6776 72.9583 49.2238C72.9583 42.16 69.0852 35.9088 63.1496 32.1857V32.1809ZM34.3651 46.2033C33.3291 49.3862 32.9537 52.7269 33.1438 55.9195C31.9747 53.6398 31.3569 50.8583 31.5138 47.8808C31.8939 40.559 36.8125 34.8621 42.501 35.1536C42.7956 35.168 43.0855 35.2014 43.3707 35.2492C39.5451 36.8025 36.1615 40.6689 34.3651 46.1985V46.2033Z" fill="white"/>
<path d="M94.7187 76.8392L94.828 76.3039C95.0751 75.1378 95.3508 73.8139 95.0799 72.4901C94.5381 69.8519 91.587 68.6858 89.3676 67.8064C86.1694 66.5399 82.762 65.3929 79.2406 64.4036C79.2216 64.3988 79.1835 64.3892 79.136 64.3701C77.6723 67.209 75.4578 69.4935 72.2737 71.1997C71.7605 71.4721 71.2853 71.6919 70.8005 71.9213C70.2445 72.1842 69.7028 72.4184 69.1562 72.6239C69.1562 72.6239 69.161 72.6239 69.1658 72.6239C70.3111 75.0995 72.2595 79.8597 72.3831 83.8312C72.5589 89.466 75.7857 88.8972 75.7857 88.8972C75.7857 88.8972 78.599 89.227 78.1666 84.6867C77.8291 81.1596 77.4727 76.9873 75.9425 73.7805C76.8454 74.0911 77.7389 74.4495 78.618 74.8462C82.0682 76.3947 85.3377 78.3446 88.3364 80.6435C89.3962 81.4559 90.3134 82.5408 91.1878 83.6448C91.3969 83.3628 91.6202 83.0809 91.8483 82.7893C92.2903 82.2302 92.7513 81.6519 93.1599 81.021C94.0819 79.6111 94.4621 78.12 94.7139 76.8487L94.7187 76.8392Z" fill="white"/>
<path d="M147.484 69.7134C146.956 69.0157 146.41 68.337 145.849 67.6679C138.312 58.702 128.608 55.9014 118.124 51.4328C106.158 46.3238 100.489 36.8657 92.9232 27.0204C88.6747 21.486 85.5429 15.8035 79.9685 11.5213C74.5985 7.39681 68.6011 4.11825 62.2426 1.76208C49.6538 -2.90247 35.9293 -3.86788 22.6515 -2.30984C-13.5703 1.93891 -54.6536 24.6595 -59.4677 64.0452C-60.4989 72.4711 -60.1663 83.578 -57.2721 91.6024C-52.843 103.885 -37.7974 108.965 -23.5738 112.822C-14.7394 115.217 -5.49621 119.628 -3.74738 129.406C-2.67812 135.395 -7.40662 149.689 -7.94838 155.668C-8.76102 164.706 -6.76507 174.078 -2.55931 182.313C-1.77519 183.851 -0.915031 185.352 0.0211639 186.805C0.653217 187.785 1.32329 188.741 2.02187 189.673C5.36746 188.674 8.9887 187.737 12.8856 186.934C16.7301 176.783 27.6033 142.874 29.8464 133.024C29.9937 132.379 30.103 131.834 30.1743 131.409C30.2123 131.179 30.2361 130.979 30.2503 130.821C30.2503 130.768 35.1927 131.084 37.2504 131.141C37.2789 131.667 37.4975 132.159 37.8635 132.599C38.6856 133.583 40.2586 134.267 42.0977 134.315L45.296 134.41C45.296 134.41 62.6323 134.835 62.7083 134.835C63.9676 134.835 65.8591 134.644 66.7905 134.085C67.779 133.488 68.4823 132.604 68.5298 131.734C68.5298 131.734 72.4932 131.739 73.9854 131.734C74.8171 131.734 75.6772 131.724 76.5517 131.7C78.1674 131.662 79.8402 131.581 81.5178 131.399C82.2544 131.318 82.991 131.218 83.7228 131.093C83.7228 131.093 98.1745 147.945 96.3638 162.393C95.4704 169.499 93.2796 179.66 91.2789 186.083C90.6611 188.062 90.0623 189.701 89.5301 190.772C89.5301 190.772 89.5301 190.772 89.5301 190.777C92.7331 191.541 98.0556 193.267 102.456 194.786C102.675 194.672 102.893 194.562 103.112 194.442C109.143 191.197 114.822 187.355 120.049 183.001C128.865 175.66 136.711 167.091 142.442 157.135C148.577 146.483 153.676 134.052 156.827 122.185C161.517 104.516 158.709 84.5004 147.484 69.7182V69.7134ZM84.3834 38.9924C84.8681 39.0354 85.3386 39.1979 85.7758 39.456C85.9944 39.585 86.2083 39.738 86.4126 39.9148C86.6169 40.0917 86.8118 40.2924 86.9971 40.5122C87.1207 40.6604 87.2395 40.8133 87.3536 40.9806C88.0426 41.9699 88.5606 43.2699 88.8315 44.7466C88.898 45.1146 88.9503 45.497 88.9836 45.8841C89.0169 46.276 89.0359 46.6727 89.0359 47.0789C89.0359 47.3513 89.0264 47.619 89.0121 47.8818C88.9978 48.1447 88.9741 48.4075 88.9408 48.6608C88.879 49.1722 88.7887 49.6645 88.6699 50.1376C88.4941 50.845 88.2612 51.4997 87.9761 52.0923C87.786 52.4842 87.5769 52.8522 87.3488 53.182C87.2348 53.3445 87.116 53.5022 86.9924 53.6504C86.8071 53.8702 86.6122 54.0709 86.4079 54.2478C86.2035 54.4246 85.9897 54.5776 85.7711 54.7066C85.3338 54.9647 84.8634 55.1272 84.3786 55.1702C84.2883 55.1797 84.1981 55.1941 84.1078 55.1941C81.3895 55.1941 79.1844 51.5618 79.1844 47.0837C79.1844 42.6055 81.3895 38.9733 84.1078 38.9733C84.1981 38.9733 84.2883 38.9876 84.3786 38.9972L84.3834 38.9924ZM131.45 115.379C128.29 117.391 123.751 116.856 121.903 120.741C123.138 121.262 124.421 121.812 125.353 122.911C129.093 128.957 120.491 127.643 116.694 124.971C116.532 124.856 116.376 124.742 116.233 124.622V124.646C116.233 124.646 116.152 124.608 115.991 124.541C115.91 124.508 115.815 124.46 115.696 124.407C115.292 124.221 114.67 123.934 113.871 123.556C113.7 123.475 113.52 123.389 113.334 123.298C113.149 123.208 112.954 123.112 112.75 123.016C112.659 122.964 112.564 122.926 112.465 122.887C112.17 122.782 111.847 122.725 111.576 122.567C111.395 122.467 111.219 122.366 111.039 122.271C110.858 122.175 110.678 122.084 110.488 121.994C109.575 121.564 108.667 121.124 107.765 120.675C105.141 119.355 102.57 117.936 100.066 116.411C97.6945 114.973 95.6368 113.085 93.1751 111.766C92.2294 111.259 91.3074 110.71 90.3997 110.132C89.4921 109.553 88.5986 108.951 87.7242 108.339C86.826 107.713 85.9421 107.068 85.0772 106.399C84.8919 106.256 84.7018 106.117 84.5164 105.978C84.3311 105.845 84.1458 105.711 83.9557 105.582C83.5803 105.324 83.2048 105.075 82.8104 104.827C82.8579 105.653 83.0242 106.485 83.0955 107.312C83.4139 110.853 83.5185 114.409 83.623 117.96C83.6705 119.542 83.7181 121.133 83.5945 122.711C83.5137 123.738 83.4424 124.895 83.1193 125.879C82.8627 126.668 72.0227 126.644 69.0668 126.62C68.815 123.996 67.874 122.586 64.5332 122.429L44.1032 121.941C40.1303 121.755 37.3312 122.883 37.3835 125.186L37.355 125.707C36.7039 125.721 35.3828 125.655 34.2708 125.612C34.0617 125.602 33.8621 125.592 33.6767 125.588C31.2626 125.502 30.5402 125.731 29.989 123.604C29.3854 121.286 29.0005 117.649 28.8484 114.686C28.8247 114.194 28.8056 113.716 28.7914 113.272C28.7866 113.047 28.7819 112.832 28.7771 112.622C28.7771 112.411 28.7724 112.211 28.7724 112.019C28.3969 110.485 28.012 108.932 27.5463 107.412C27.3895 106.906 27.2231 106.404 27.0473 105.907C26.7812 105.161 26.4818 104.43 26.1491 103.723C25.5931 102.537 24.9325 101.409 24.1247 100.368C22.1952 97.8919 19.572 96.1044 16.8252 94.5225C15.946 94.0159 15.0526 93.5284 14.1639 93.0505C11.1605 91.4208 9.21205 90.4793 6.0518 89.1602C2.86303 87.8172 -0.340004 86.522 -3.60006 85.3511C-6.4134 84.3427 -9.2505 83.4012 -12.1114 82.5362C-13.5418 82.1013 -14.9722 81.6568 -16.4169 81.2888C-17.5955 80.9877 -18.9119 81.1502 -20.1189 81.0833C-21.0884 81.0307 -22.0626 80.9734 -23.0321 80.9208C-24.6574 80.83 -26.3016 80.7344 -27.8461 80.2326C-29.3906 79.7307 -30.8543 78.7606 -31.5909 77.3172C-31.9473 76.6242 -32.1089 75.7114 -31.7905 74.9802C-31.7572 74.9085 -31.686 74.7794 -31.5957 74.6313C-32.5984 74.1534 -33.4395 73.3839 -34.0003 72.4233C-34.3377 71.845 -34.5706 71.1998 -34.6799 70.5116L-35.9772 62.2483V62.2387L-36.7994 57.0293L-38.6433 45.2819C-38.6765 45.0716 -38.6955 44.8613 -38.705 44.6558C-38.7241 44.2448 -38.6955 43.8386 -38.6243 43.4467C-38.591 43.2507 -38.5435 43.0596 -38.4864 42.8684C-38.3724 42.4908 -38.2203 42.1276 -38.035 41.7883C-37.9399 41.6162 -37.8401 41.4537 -37.7261 41.2912C-37.5597 41.0523 -37.3744 40.8276 -37.1701 40.6174C-36.9657 40.4071 -36.7471 40.2111 -36.5143 40.0343C-36.2814 39.8575 -36.0343 39.6998 -35.7729 39.5612C-35.6446 39.4942 -35.5068 39.4273 -35.3737 39.37C-35.3167 39.3461 -35.2597 39.327 -35.2026 39.3079C-35.1076 39.2696 -35.0125 39.2314 -34.9175 39.2027C-34.8462 39.1788 -34.7702 39.1597 -34.6941 39.1358C-34.5991 39.1071 -34.5041 39.0832 -34.409 39.0641C-34.3377 39.0498 -34.2617 39.0307 -34.1856 39.0211C-34.0811 39.002 -33.9718 38.9876 -33.8625 38.9733C-33.796 38.9637 -33.7342 38.9542 -33.6676 38.9494C-33.4966 38.9351 -33.3255 38.9255 -33.1496 38.9255C-33.1496 38.9255 -33.1401 38.9255 -33.1354 38.9255H-33.1306L-21.6824 39.002L-18.8833 39.0211H-18.8596C-23.9398 37.4678 -26.2208 33.3195 -26.8624 30.2703C-27.2806 28.2917 -27.0572 26.7337 -26.1828 25.5102C-25.0138 23.8757 -22.6614 23.154 -20.4658 23.7657C-18.8928 24.2006 -17.738 25.1469 -16.5928 26.1554C-15.9512 26.7241 -15.2289 27.3693 -14.6016 28.1005C-13.423 26.8579 -11.6456 26.1984 -10.2105 25.6679C-8.77528 25.1374 -7.35435 24.6786 -5.72908 24.8411C-3.4575 25.0705 -1.52808 26.5855 -1.03859 28.5354C-0.672668 29.9931 -1.03859 31.5225 -2.14587 33.2143C-3.71412 35.5992 -7.67275 38.4333 -13.2234 39.0593H-13.2186L-9.26951 39.0832L1.54664 39.1549C1.72723 39.1549 1.89832 39.1693 2.07415 39.1836C2.10742 39.1836 2.14544 39.1931 2.1787 39.1931C2.53512 39.2362 2.87729 39.3126 3.20519 39.4178C3.2242 39.4226 3.24321 39.4273 3.26222 39.4369C3.60438 39.5516 3.93228 39.695 4.23643 39.867H4.24594C5.14412 40.3832 5.88546 41.1335 6.37495 42.0272C6.56029 42.3666 6.71236 42.725 6.82166 43.0978C7.04501 43.8434 7.11155 44.6558 6.98324 45.4826L5.79993 53.2824H5.79517L4.98254 58.6351H4.98729L3.16717 70.6645C3.1339 70.8891 3.08638 71.1042 3.0246 71.3193C2.84402 71.9597 2.55413 72.5428 2.1787 73.0637C2.16444 73.0828 2.15019 73.0971 2.13593 73.1163C2.3878 73.1163 2.63016 73.121 2.85352 73.1163C5.92348 73.1163 8.94592 72.7291 12.0064 73.0828C13.912 73.3026 15.832 73.3982 17.7471 73.4699C22.0907 72.9108 26.496 72.2847 30.9061 71.8928C30.9061 71.8928 35.6014 78.6363 36.4425 84.2137C37.2837 89.7911 40.4249 88.8448 40.4249 88.8448C40.4249 88.8448 43.2573 88.8448 42.2878 84.381C41.3231 79.9315 40.2063 74.4114 36.8893 71.5391C36.9273 71.5391 36.9605 71.5391 36.9986 71.5391C36.0481 71.1998 35.1404 70.8318 34.3563 70.4351C29.3807 67.9069 23.6875 62.1909 23.697 45.2867C23.697 43.8959 23.8585 42.4574 24.0771 41.0953C24.5286 38.2612 25.4268 35.5036 26.7194 32.9419C27.1281 32.1342 27.5796 31.3456 28.0643 30.5809V20.6305C27.1138 20.3342 26.42 19.4596 26.42 18.413C26.42 17.1226 27.4703 16.0759 28.7676 16.0759C30.065 16.0759 31.1152 17.1226 31.1152 18.413C31.1152 19.4596 30.4214 20.3295 29.471 20.6305V28.5545C31.8709 25.3907 34.9171 22.7191 38.3672 20.7214C38.4242 20.6879 38.486 20.6592 38.5478 20.6258C39.1941 20.2578 39.8594 19.9232 40.5342 19.6126C41.2091 19.3019 41.8981 19.0199 42.592 18.7571C43.0577 18.5803 43.5234 18.4178 43.9939 18.2553C47.3395 17.1274 50.8514 16.4965 54.3918 16.5204C56.3688 16.5347 58.303 16.7307 60.1706 17.0843C61.4727 17.3281 62.6941 17.6005 63.8631 17.9159C65.4219 18.3365 66.876 18.8383 68.2732 19.4644C68.9718 19.7751 69.6609 20.1192 70.3357 20.5015C71.0153 20.8791 71.6853 21.2949 72.3507 21.7537C72.6833 21.9831 73.016 22.222 73.3486 22.4706C74.0139 22.9676 74.684 23.5124 75.3541 24.1051C75.6915 24.4014 76.0289 24.7073 76.3711 25.0322C76.7132 25.3524 77.0554 25.687 77.4023 26.0359C77.6209 26.2557 77.83 26.4803 78.0296 26.7145C78.4336 27.1829 78.8137 27.6895 79.1702 28.22C79.5266 28.7505 79.8592 29.3049 80.1729 29.8832C80.6433 30.7482 81.0663 31.6563 81.456 32.593C81.6033 32.8798 81.7506 33.1665 81.8885 33.4533C82.3067 34.3231 82.6868 35.212 83.0147 36.1249C82.5205 36.2969 82.0405 36.5168 81.5843 36.7796C81.2421 36.9756 80.9095 37.2002 80.5911 37.4439C80.2727 37.6877 79.9638 37.9601 79.6739 38.2469C79.5266 38.3902 79.384 38.5432 79.2462 38.6961C78.828 39.1597 78.4478 39.6711 78.1057 40.2207C78.0344 40.3354 77.9726 40.4549 77.9013 40.5696C76.832 42.4144 76.1905 44.6511 76.1715 47.0741C76.1572 49.263 76.6847 51.4615 77.7255 53.4019C77.8348 53.6026 77.9203 53.8176 78.0391 54.0088C78.0486 54.0279 78.0629 54.0423 78.0724 54.0614C78.3623 54.5298 78.6902 54.979 79.0466 55.3996C79.403 55.8202 79.7975 56.2121 80.2204 56.5705C80.363 56.69 80.5435 56.8047 80.7384 56.9194C80.9332 57.0341 81.1328 57.1536 81.3182 57.273C81.4085 57.3352 81.494 57.3973 81.57 57.4642C81.6461 57.5311 81.7126 57.598 81.7649 57.6697C81.8694 57.8131 81.9217 57.966 81.8885 58.1333C81.8742 58.1954 81.8267 58.2671 81.7554 58.3388C81.6746 58.4201 81.5701 58.5109 81.4607 58.5969C81.2802 58.7403 81.0948 58.8884 81.0235 59.0127C80.8857 59.2469 80.8049 59.5336 80.7384 59.8252C80.6719 60.1167 80.6244 60.4178 80.5531 60.6759C80.4295 61.1251 80.2964 61.5553 80.1491 61.9854C84.2123 63.1468 87.767 64.3463 90.9796 65.632C94.5913 67.0848 96.7298 68.7528 97.7183 70.8844C98.7115 73.0255 98.4786 76.1415 97.0244 80.1418C96.5444 81.4608 95.7556 82.6174 94.7101 83.9508C94.6055 84.0846 94.4867 84.228 94.3679 84.3762C93.9545 84.878 93.4887 85.4515 93.1466 86.0871C94.482 87.693 95.8126 89.2988 97.1385 90.9142C100.769 95.3302 104.381 99.7606 108.002 104.186C110.031 106.667 111.961 109.348 114.213 111.637C115.15 113.496 115.786 115.475 116.171 117.535C116.323 117.864 116.494 117.31 116.532 117.167C117.198 115.413 117.464 112.54 116.78 111.049C120.629 107.57 132.163 102.977 133.964 110.16C134.315 112.268 133.018 114.347 131.44 115.384L131.45 115.379Z" fill="white"/>
<path d="M133.975 110.151C132.173 102.968 120.635 107.566 116.79 111.04C117.475 112.531 117.209 115.404 116.543 117.158C116.501 117.301 116.334 117.855 116.182 117.526C115.797 115.466 115.16 113.492 114.224 111.628C111.972 109.339 110.042 106.653 108.013 104.177C104.392 99.7516 100.78 95.3213 97.1493 90.9053C95.8234 89.2946 94.4928 87.684 93.1574 86.0782C93.4995 85.4378 93.9605 84.8691 94.3787 84.3672C94.4975 84.2191 94.6163 84.0805 94.7209 83.9419C95.7616 82.6085 96.5553 81.4519 97.0352 80.1328C98.4847 76.1374 98.7175 73.0213 97.729 70.8754C96.7453 68.7439 94.6021 67.0759 90.9903 65.623C87.7778 64.3326 84.2231 63.1378 80.1599 61.9765C79.8748 62.8128 79.5374 63.6062 79.1477 64.3661C79.1952 64.3804 79.2333 64.3948 79.2523 64.3995C82.7737 65.3888 86.1811 66.5359 89.3793 67.8024C91.5987 68.6817 94.5498 69.8527 95.0915 72.486C95.3672 73.8147 95.0868 75.1337 94.8397 76.2999L94.7304 76.8351C94.4785 78.1064 94.0983 79.5976 93.1764 81.0074C92.7677 81.6383 92.3067 82.2118 91.8648 82.7758C91.6319 83.0673 91.4133 83.3493 91.2042 83.6312C90.3298 82.5272 89.4173 81.4423 88.3528 80.6299C85.3542 78.331 82.0846 76.3811 78.6344 74.8326C77.7505 74.436 76.8619 74.0775 75.9589 73.7669C77.4892 76.9737 77.8456 81.1508 78.183 84.6731C78.6155 89.2182 75.8021 88.8836 75.8021 88.8836C75.8021 88.8836 72.5706 89.4524 72.3995 83.8176C72.2759 79.8509 70.3275 75.0859 69.1822 72.6103C69.1822 72.6103 69.1775 72.6103 69.1727 72.6103C67.4191 73.2889 65.675 73.7047 63.5222 73.958C57.33 74.6749 51.0381 74.5459 44.8791 73.5661C44.7746 73.5518 44.6558 73.5279 44.5322 73.5088C45.8153 73.6235 47.1222 73.6952 48.4528 73.7047C52.4115 73.7286 56.199 73.5231 59.6729 72.8732C69.0301 71.1335 76.111 66.2156 78.088 54.0525C78.0784 54.0333 78.0642 54.019 78.0547 53.9999C77.9359 53.8039 77.8503 53.5937 77.741 53.3929C76.7003 51.4573 76.1728 49.2589 76.187 47.0652C76.2013 44.6421 76.8476 42.4054 77.9169 40.5606C74.9419 28.3449 63.1183 19.1496 48.814 19.0588C45.2213 19.0349 41.7664 19.5893 38.5586 20.6216C38.5016 20.6551 38.4398 20.6837 38.378 20.7172C34.9279 22.7149 31.8817 25.3865 29.4818 28.5504V20.6264C30.4322 20.3301 31.1261 19.4555 31.1261 18.4088C31.1261 17.1184 30.0758 16.0718 28.7784 16.0718C27.4811 16.0718 26.4308 17.1184 26.4308 18.4088C26.4308 19.4555 27.1246 20.3253 28.0751 20.6264V30.5768C27.5904 31.3415 27.1389 32.1301 26.7302 32.9377C25.4328 35.4994 24.5394 38.257 24.088 41.0911C23.8693 42.4532 23.7078 43.8918 23.7078 45.2825C23.6983 62.182 29.3867 67.9027 34.3671 70.431C35.1512 70.8276 36.0589 71.2004 37.0094 71.535C36.9714 71.535 36.9381 71.535 36.9001 71.535C40.2171 74.4073 41.3339 79.9273 42.2986 84.3768C43.2681 88.8406 40.4357 88.8406 40.4357 88.8406C40.4357 88.8406 37.2945 89.7869 36.4533 84.2095C35.6122 78.6321 30.9217 71.8934 30.917 71.8886C26.5069 72.2757 22.1015 72.9066 17.7579 73.4658C15.838 73.3941 13.9228 73.2985 12.0172 73.0787C8.96148 72.725 5.93429 73.1121 2.86433 73.1121C2.63622 73.1217 2.39385 73.1169 2.14673 73.1121C0.742649 73.1121 -1.24591 73.1265 -3.07079 73.1121L-13.051 75.2771L-17.2948 75.2389H-18.6872H-19.0769H-19.286L-23.9765 75.2102L-29.2372 75.1767C-30.0736 75.172 -30.872 74.976 -31.5896 74.6367H-31.5991C-31.6894 74.7848 -31.7607 74.9139 -31.794 74.9856C-32.1171 75.7216 -31.9508 76.6344 -31.5944 77.3226C-30.853 78.7612 -29.3941 79.7314 -27.8496 80.238C-26.3051 80.7398 -24.656 80.8354 -23.0355 80.9262C-22.0661 80.9788 -21.0918 81.0361 -20.1224 81.0887C-18.9106 81.1556 -17.5989 80.9931 -16.4204 81.2942C-14.9757 81.6622 -13.5405 82.1067 -12.1148 82.5416C-9.25396 83.4066 -6.41685 84.3481 -3.60351 85.3566C-0.343458 86.5275 2.86432 87.8226 6.04834 89.1656C9.20384 90.4895 11.1523 91.431 14.1605 93.0559C15.0491 93.5386 15.9378 94.0213 16.8217 94.5279C16.8217 94.5279 27.8042 100.363 30.9074 107.202C33.217 112.288 34.0154 121.311 34.2721 125.612C35.3888 125.66 36.71 125.727 37.3563 125.708L37.3848 125.187C37.3325 122.883 40.1316 121.751 44.1045 121.942L64.5345 122.429C67.8801 122.587 68.8163 123.997 69.0681 126.621C72.0288 126.644 82.8687 126.664 83.1206 125.88C83.439 124.89 83.515 123.739 83.5958 122.711C83.7194 121.129 83.6718 119.543 83.6243 117.961C83.5198 114.41 83.4152 110.854 83.0968 107.312C83.0208 106.486 82.8592 105.654 82.8117 104.827L82.0181 98.9344C82.0181 98.9344 110.194 120.503 116.23 124.613C116.424 124.747 116.577 124.862 116.691 124.962C120.488 127.634 129.089 128.948 125.349 122.902C124.418 121.803 123.135 121.253 121.899 120.733C123.743 116.847 128.281 117.387 131.446 115.37C133.024 114.328 134.321 112.249 133.97 110.147L133.975 110.151ZM36.9428 66.2873C31.5395 63.0661 28.0703 57.4218 28.0703 48.9912C28.0703 37.6788 38.2782 28.5743 50.7054 28.6555C55.3293 28.6842 59.6016 29.9842 63.1516 32.1826C69.0872 35.9057 72.9602 42.1569 72.9602 49.2206C72.9602 66.6745 62.7524 69.6376 50.3252 69.5564C45.2926 69.5229 40.6639 68.4715 36.9428 66.2826V66.2873Z" fill="black"/>
</g>
</svg>
