<?xml version="1.0" encoding="utf-8"?><svg viewBox="0 0 250 107" xmlns="http://www.w3.org/2000/svg" xmlns:xlink="http://www.w3.org/1999/xlink"><style>:root>svg{display:none}:root>svg:target{display:block}</style><svg viewBox="0 0 25 24" id="arrow" xmlns="http://www.w3.org/2000/svg"><path fill-rule="evenodd" clip-rule="evenodd" d="M14.343 5.293l6.364 6.364a1 1 0 010 1.414l-6.364 6.364a1 1 0 11-1.414-1.414l4.657-4.657H4v-2h13.586l-4.657-4.657a1 1 0 011.414-1.414z"/></svg><svg viewBox="0 0 250 100" id="logo" xmlns="http://www.w3.org/2000/svg"><path d="M45.42 75.728c.21-.016.42-.03.635-.043-.213.012-.423.024-.633.039l-.001.004zM60.6 32.425c0 1.413.696 2.559 1.554 2.559.028 0 .057-.005.085-.008.468-.585.771-1.509.771-2.55 0-1.043-.303-1.967-.77-2.552-.029-.003-.058-.008-.086-.008-.858 0-1.553 1.146-1.553 2.56zm-.362-6.427zM45.56 32.68c-.05.938.145 1.817.514 2.536a8.352 8.352 0 01.385-3.065c.567-1.747 1.634-2.965 2.841-3.455a2.362 2.362 0 00-.274-.03c-1.793-.092-3.345 1.705-3.467 4.015v-.001z"/><path d="M64.429 68.475c-.273 2.588-.96 6.222-1.635 8.733-.02.072-.052.193-.072.262.55.115 1.023.252 1.143.288.17-.338.358-.853.552-1.48.631-2.026 1.324-5.232 1.604-7.474.573-4.558-3.988-9.875-3.988-9.875-.231.039-.464.07-.696.096 1.56 2.392 3.446 6.066 3.09 9.45h.002zm-2.188-33.499c.153-.013.302-.064.44-.146.069-.04.136-.089.2-.145a1.69 1.69 0 00.297-.336c.072-.104.14-.218.198-.344.09-.187.164-.393.22-.616a3.765 3.765 0 00.107-.712 4.486 4.486 0 00-.009-.63 3.835 3.835 0 00-.048-.36 3.061 3.061 0 00-.466-1.188 1.69 1.69 0 00-.297-.336 1.385 1.385 0 00-.201-.145 1.045 1.045 0 00-.44-.146c.469.585.771 1.51.771 2.551 0 1.042-.302 1.967-.77 2.552l-.002.001zM51.014 23.585c4.514.03 8.244 2.93 9.183 6.785.021-.037.042-.076.064-.11a3.612 3.612 0 01.495-.623 3.016 3.016 0 01.603-.463c.144-.083.295-.152.451-.207a8.848 8.848 0 00-.491-1.114 9.293 9.293 0 00-.405-.855 6.47 6.47 0 00-.317-.525 4.957 4.957 0 00-.557-.687 12.885 12.885 0 00-.647-.61 10.294 10.294 0 00-.947-.741 8.168 8.168 0 00-1.287-.723 9.416 9.416 0 00-1.391-.488 15.2 15.2 0 00-1.165-.263c-.591-.111-1.2-.173-1.824-.178a10.072 10.072 0 00-3.28.548 11.774 11.774 0 00-1.092.428 8.166 8.166 0 00-.627.32 10.339 10.339 0 013.236-.494h-.002zm9.606 6.194zm.426-.396zm.699 21.264c.125.078.243.157.361.238.059.04.117.083.177.125.059.043.117.086.177.133a24.91 24.91 0 001.68 1.178c.286.182.578.356.875.515.777.415 1.426 1.012 2.174 1.466a34.681 34.681 0 003.289 1.761c.06.03.117.058.174.088l.169.093c.087.05.187.068.28.101a.526.526 0 01.09.041c.063.032.125.06.185.09l.17.08c.251.121.448.212.575.269l.093.042c.05.023.076.033.076.033v-.007c-1.905-1.296-10.794-8.102-10.794-8.102l.25 1.859-.001-.003zM72.436 57a1.574 1.574 0 00-.146-.11c.045.038.095.074.146.11zm-31.513-9.601c.867.499 1.695 1.063 2.303 1.844.255.329.464.685.64 1.059a8.591 8.591 0 01.44 1.164c.149.48.27.97.387 1.453l.001.19c0 .067.003.135.005.205.004.142.01.291.018.447.048.935.17 2.084.36 2.814.175.67.402.597 1.163.625l.188.008c-.081-1.357-.333-4.204-1.062-5.809-.979-2.159-4.444-3.999-4.444-3.999l.001-.001zm3.769 5.521zM29.528 41.313h.189l-.002-.454-.003-.659-.016-3.467-5.434.478.41 2.61a1.751 1.751 0 001.715 1.47l1.66.011 1.48.01zm-5.817-10.711a1.618 1.618 0 00-.283.68 1.696 1.696 0 00-.006.579l.581 3.707h.024l5.662-.501-.02-4.48-.004-.704h-.009l-.886-.006-3.61-.025h-.006a1.913 1.913 0 00-.225.015l-.102.016-.07.013-.09.023c-.025.006-.047.013-.071.02-.032.011-.06.023-.09.034a1.766 1.766 0 00-.414.23 1.765 1.765 0 00-.38.397v.002zm.956-.682z"/><path d="M24.506 29.974a1.05 1.05 0 01.088-.032l-.088.032zm6.959 4.936l5.979-.526.373-2.461a1.75 1.75 0 00-.192-1.09 1.754 1.754 0 00-.67-.68h-.003a1.484 1.484 0 00-.307-.137l-.019-.007a1.787 1.787 0 00-.323-.07l-.033-.002a1.555 1.555 0 00-.169-.01l-3.412-.022-1.245-.007v.452l.023 4.565-.002-.005zm5.16-4.902l.019.006-.019-.006zm-5.135 9.916l.004.971v.431l3.381.023a1.752 1.752 0 001.416-.706h-.002l.014-.016a1.75 1.75 0 00.312-.757l.574-3.796-5.714.504.015 3.347v-.001zM24.263 37.216l-.002-.005.002.005zm-.235-1.651l5.662-.498-5.662.498zM54.441 40.565c-1.096.203-2.29.27-3.54.262-.42-.003-.832-.024-1.237-.062a21.592 21.592 0 005.992.142 6.967 6.967 0 002.301-.647c.153-.072.303-.14.465-.227 1.005-.539 1.704-1.26 2.165-2.155a6.005 6.005 0 00.447-1.167c.023-.082.038-.177.059-.269a.907.907 0 01.09-.256c.022-.04.08-.085.138-.131a1.35 1.35 0 00.093-.082c.022-.023.038-.045.041-.065a.18.18 0 00-.038-.146.416.416 0 00-.062-.065.848.848 0 00-.08-.06c-.056-.04-.12-.075-.182-.112a1.237 1.237 0 01-.164-.11 3.182 3.182 0 01-.37-.37 3.51 3.51 0 01-.307-.422c-.624 3.837-2.858 5.39-5.81 5.939v.003z"/><path d="M61.18 36.189c.023-.04.081-.085.138-.131a.62.62 0 00-.137.13zM29.588 26.705c-.26-.232-.496-.428-.75-.499-.265-.074-.467.027-.517.097-.07.1-.078.298-.02.574.169.798.695 1.623 1.482 2.323l.057.05c.036.032.096.088.162.142l.267-1.332c.051-.257.078-.423.024-.567-.093-.245-.447-.558-.705-.786v-.002zm2.125 2.325c.988-.369 1.78-.946 2.228-1.628.154-.235.222-.424.192-.543-.021-.083-.172-.249-.445-.276a.733.733 0 00-.081-.004c-.24-.002-.506.089-.801.197-.324.12-.768.284-.943.478-.105.116-.14.28-.186.537l-.238 1.338c.08-.027.157-.056.202-.073l.072-.027zm23.828-1.305a7.534 7.534 0 00-3.927-1.113c-3.92-.026-7.141 2.847-7.141 6.416 0 2.66 1.094 4.44 2.8 5.458 1.173.69 2.632 1.022 4.221 1.032 3.921.026 7.142-.909 7.142-6.416 0-2.229-1.222-4.201-3.095-5.376v-.001zm-9.082 4.424a8.355 8.355 0 00-.385 3.066c-.369-.72-.564-1.597-.514-2.537.12-2.31 1.672-4.107 3.466-4.015.093.004.185.015.275.03-1.207.49-2.275 1.71-2.842 3.455v.001zm19.043 9.666l.034-.169c.078-.368.165-.786.08-1.203-.171-.833-1.102-1.2-1.802-1.478a32.826 32.826 0 00-3.229-1.084c-.462.895-1.16 1.616-2.165 2.155-.162.085-.312.155-.465.227a6.843 6.843 0 01-.518.222h.003c.36.781.976 2.283 1.015 3.536.055 1.778 1.073 1.599 1.073 1.599s.888.104.751-1.329c-.106-1.113-.219-2.43-.701-3.441.285.098.566.211.844.336a15.428 15.428 0 013.066 1.83c.335.256.624.598.9.946.066-.089.136-.178.208-.27.14-.176.285-.359.414-.558.291-.444.411-.915.49-1.316l.002-.003z"/><path d="M82.15 39.567c-.166-.22-.339-.435-.515-.646-2.379-2.829-5.44-3.712-8.748-5.122-3.776-1.612-5.564-4.596-7.951-7.703-1.341-1.746-2.33-3.539-4.088-4.89a21.377 21.377 0 00-5.593-3.08c-3.972-1.471-8.302-1.776-12.492-1.284-11.428 1.34-24.39 8.51-25.91 20.936-.325 2.659-.22 6.163.693 8.695 1.398 3.875 6.145 5.478 10.633 6.695 2.787.756 5.703 2.148 6.255 5.233.338 1.89-1.154 6.4-1.325 8.286-.257 2.851.373 5.808 1.7 8.407a15.689 15.689 0 001.445 2.322 40.64 40.64 0 013.428-.864c1.213-3.203 4.644-13.902 5.352-17.01.046-.203.08-.375.103-.51.012-.072.02-.135.024-.185 0-.017 1.56.083 2.209.101a.783.783 0 00.193.46c.26.31.756.526 1.336.541l1.01.03 5.493.135c.398 0 .994-.06 1.288-.237.312-.189.534-.467.549-.742 0 0 1.25.002 1.721 0 .263 0 .534-.003.81-.01.51-.013 1.038-.038 1.567-.095.232-.026.465-.058.696-.097 0 0 4.56 5.317 3.988 9.875-.282 2.243-.973 5.449-1.604 7.475-.195.625-.384 1.142-.552 1.48v.001c1.01.241 2.69.786 4.078 1.265.07-.036.138-.07.207-.108a32.182 32.182 0 005.344-3.61c2.782-2.316 5.257-5.02 7.066-8.161 1.935-3.361 3.544-7.284 4.538-11.028 1.48-5.575.594-11.89-2.948-16.554v-.001zm-19.909-9.693c.153.013.301.065.44.146.068.04.136.089.2.145a1.69 1.69 0 01.297.336c.218.312.381.722.467 1.188a3.898 3.898 0 01.064.736 4.671 4.671 0 01-.03.5c-.02.16-.048.316-.086.465-.055.223-.128.43-.218.617a2.277 2.277 0 01-.31.492 1.69 1.69 0 01-.185.188 1.382 1.382 0 01-.201.145 1.048 1.048 0 01-.44.146c-.028.003-.056.008-.085.008-.858 0-1.553-1.146-1.553-2.56 0-1.412.695-2.558 1.553-2.558.028 0 .057.004.085.007l.002-.001zm14.85 24.101c-.997.635-2.429.466-3.012 1.692.39.164.795.338 1.089.684 1.18 1.908-1.534 1.493-2.732.65a2.273 2.273 0 01-.146-.11v.008s-.025-.012-.076-.033c-.026-.01-.056-.026-.093-.042-.128-.06-.324-.15-.576-.269l-.17-.081a8.043 8.043 0 00-.184-.09.621.621 0 00-.09-.04c-.093-.033-.195-.051-.28-.101l-.17-.094a4.78 4.78 0 00-.174-.087A34.346 34.346 0 0167.19 54.3c-.748-.454-1.397-1.05-2.174-1.466-.298-.16-.59-.333-.876-.516a23.492 23.492 0 01-1.68-1.178c-.058-.045-.117-.088-.176-.132a10.757 10.757 0 00-.538-.363c.015.26.067.523.09.784.1 1.117.133 2.239.166 3.36.015.498.03 1-.009 1.498-.025.324-.048.69-.15 1-.08.249-3.501.241-4.434.234-.08-.828-.376-1.273-1.43-1.323l-6.446-.154c-1.254-.059-2.137.297-2.12 1.024l-.01.165c-.205.004-.621-.017-.972-.03a4.438 4.438 0 00-.188-.008c-.761-.027-.99.045-1.163-.626-.19-.731-.312-1.879-.36-2.814a27.819 27.819 0 01-.023-.651l-.001-.19a26.29 26.29 0 00-.387-1.454c-.05-.16-.102-.318-.157-.475a7.72 7.72 0 00-.284-.689 5.591 5.591 0 00-.639-1.058c-.608-.782-1.436-1.345-2.303-1.845-.277-.16-.56-.313-.84-.464a24.491 24.491 0 00-2.559-1.228 60.804 60.804 0 00-3.045-1.201 55.972 55.972 0 00-2.686-.889c-.451-.137-.902-.277-1.358-.393-.372-.095-.787-.044-1.168-.065-.306-.017-.613-.035-.92-.051-.512-.029-1.031-.06-1.518-.217-.488-.159-.95-.465-1.182-.92-.112-.219-.163-.507-.063-.738.01-.022.033-.063.062-.11a1.733 1.733 0 01-.973-1.3l-.41-2.607v-.003l-.26-1.643-.581-3.707a1.797 1.797 0 01.006-.579 1.793 1.793 0 01.283-.68 1.85 1.85 0 01.382-.397 1.715 1.715 0 01.36-.21l.055-.019c.03-.012.06-.024.09-.033.022-.008.046-.014.07-.021.03-.01.06-.017.09-.023.022-.004.046-.01.07-.013.033-.006.068-.01.102-.015l.062-.008c.054-.005.108-.008.163-.008h.006l3.612.025.884.006h.007c-1.603-.49-2.323-1.8-2.525-2.761-.132-.625-.061-1.116.215-1.502.368-.516 1.11-.744 1.803-.55.497.136.86.435 1.222.753.203.18.43.383.629.614.371-.392.932-.6 1.385-.768.453-.167.901-.312 1.414-.26.717.072 1.326.55 1.48 1.165.115.46 0 .943-.35 1.476-.494.753-1.743 1.647-3.495 1.845h.002l1.246.007 3.413.023c.057 0 .11.004.166.009l.033.003a1.743 1.743 0 01.65.213h.002a1.772 1.772 0 01.813 1.019c.07.235.091.491.05.752l-.372 2.461h-.002l-.256 1.69h.001l-.574 3.795a1.75 1.75 0 01-.312.757l-.013.016c.079 0 .156.002.226 0 .969 0 1.922-.122 2.888-.01.601.07 1.207.1 1.811.122 1.37-.177 2.76-.374 4.152-.498 0 0 1.481 2.128 1.747 3.888.265 1.76 1.256 1.46 1.256 1.46s.894 0 .588-1.407c-.304-1.404-.657-3.146-1.703-4.052h.034a7.365 7.365 0 01-.833-.349c-1.57-.797-3.367-2.6-3.364-7.934 0-.44.051-.893.12-1.323a8.79 8.79 0 011.258-3.317v-3.14a.734.734 0 01.222-1.437.735.735 0 01.222 1.437v2.5a9.508 9.508 0 012.807-2.471l.057-.03a8.15 8.15 0 01.627-.32c.213-.098.43-.187.65-.27.146-.056.293-.107.441-.158a10.075 10.075 0 013.281-.548 10.31 10.31 0 011.824.178c.41.077.796.163 1.165.263.491.132.95.29 1.391.488.22.098.438.207.65.327.215.12.427.25.636.395a9.888 9.888 0 01.948.742 12.719 12.719 0 01.646.61 4.773 4.773 0 01.558.689c.113.167.218.342.317.524.148.273.281.56.404.856a8.86 8.86 0 01.492 1.114 2.655 2.655 0 00-.764.416 3.055 3.055 0 00-.425.395 3.387 3.387 0 00-.36.481l-.064.11a4.16 4.16 0 00-.546 2.052 4.182 4.182 0 00.49 1.997c.035.063.062.131.1.191.002.007.007.011.01.017a3.444 3.444 0 00.677.792c.045.038.102.074.164.11.061.036.124.074.183.111l.08.06a.406.406 0 01.06.066.18.18 0 01.04.146.148.148 0 01-.042.065 1.043 1.043 0 01-.093.081.618.618 0 00-.138.131.91.91 0 00-.09.257c-.021.092-.036.187-.059.268a6.954 6.954 0 01-.127.413 35.5 35.5 0 013.417 1.15c1.14.46 1.814.986 2.126 1.658.314.676.24 1.659-.218 2.92-.152.417-.4.782-.73 1.203l-.109.134a3.43 3.43 0 00-.385.54c.421.507.841 1.013 1.26 1.523 1.145 1.393 2.285 2.791 3.427 4.187.64.783 1.25 1.629 1.96 2.351.295.587.496 1.211.618 1.861.048.104.102-.07.114-.116.21-.553.293-1.46.078-1.93 1.214-1.098 4.853-2.547 5.422-.28.11.664-.299 1.32-.797 1.648l.003-.002z"/><path d="M42.75 78.553a57.86 57.86 0 00-2.906.194c-.782.073-1.523.156-2.228.242l.123.123c4.936 4.857 11.448 4.634 17.954 3.793a36.544 36.544 0 006.164-1.347c-3.153-1.202-6.861-2.405-11.605-2.82a57.883 57.883 0 00-7.5-.184l-.002-.001zm10.66-2.662c1.086.136 2.05.273 2.979.424.339.056.673.113 1.007.174.31-1.392.7-5.506.698-6.657 0-.303-.053-.634-.144-.98-.01-.02-.021-.037-.027-.059-.73-2.462-2.122-5-6.192-3.528-.487.176-.884.56-1.235 1.031-.76 1.027-1.294 2.315-1.892 3.437-1.029 1.93-2.323 3.93-3.184 5.992l-.001.005c.208-.017.42-.03.634-.044 2.24-.139 4.75-.119 7.356.207v-.002z"/><path d="M63.865 77.758a15.62 15.62 0 00-1.143-.288l.072-.262c.675-2.511 1.362-6.145 1.635-8.733.355-3.382-1.531-7.058-3.09-9.45-.529.059-1.058.084-1.568.095-.276.006-.547.01-.81.01-.47.002-1.72 0-1.72 0-.016.275-.238.555-.55.742-.293.178-.892.237-1.288.237l-5.493-.134-1.01-.03c-.58-.015-1.076-.23-1.335-.541a.78.78 0 01-.194-.46c-.65-.019-2.207-.118-2.209-.101-.004.05-.012.113-.024.185a7.968 7.968 0 01-.103.51c-.71 3.108-4.14 13.805-5.351 17.01-1.23.253-2.372.548-3.428.863.486.683 1.358 1.575 1.358 1.575a76.382 76.382 0 012.229-.242c.91-.083 1.875-.152 2.905-.194a57.9 57.9 0 017.5.184c4.745.414 8.454 1.62 11.606 2.82 0 0 2.826-.922 6.086-2.532-1.388-.48-3.068-1.024-4.078-1.265v-.002l.003.003zm-6.469-1.27c-.334-.06-.669-.117-1.007-.173-.93-.15-1.894-.288-2.98-.424a39.793 39.793 0 00-7.356-.206c-.213.013-.426.027-.634.043l.001-.004c.861-2.063 2.155-4.063 3.184-5.993.598-1.121 1.13-2.41 1.892-3.436.35-.474.747-.855 1.235-1.032 4.07-1.471 5.461 1.066 6.191 3.529.007.021.019.04.028.059.091.347.143.677.143.98 0 1.15-.388 5.264-.697 6.656v.001zM29.718 41.314l-.19-.001h.068l.122.001z"/><path d="M77.888 52.325c-.569-2.266-4.21-.816-5.422.28.216.471.132 1.378-.078 1.931-.014.045-.066.22-.114.116a6.976 6.976 0 00-.618-1.86c-.71-.723-1.32-1.57-1.96-2.352-1.142-1.396-2.282-2.794-3.427-4.187-.419-.508-.839-1.017-1.26-1.523.108-.202.254-.382.385-.54.038-.047.075-.09.108-.134.329-.42.58-.786.73-1.202.458-1.26.531-2.244.22-2.92-.31-.673-.987-1.2-2.127-1.658a34.823 34.823 0 00-3.417-1.15c-.09.263-.196.514-.32.753.016.005.028.01.034.01 1.11.313 2.186.675 3.195 1.075.7.277 1.631.646 1.802 1.477.087.42-.001.836-.08 1.204l-.034.168c-.079.402-.199.872-.49 1.317-.129.199-.274.38-.414.558-.073.092-.142.18-.208.27-.276-.349-.564-.69-.9-.947a15.427 15.427 0 00-3.066-1.83c-.279-.124-.56-.238-.844-.336.483 1.012.595 2.33.702 3.441.136 1.435-.752 1.329-.752 1.329s-1.02.18-1.073-1.598c-.04-1.252-.654-2.755-1.016-3.537h-.003a7.028 7.028 0 01-1.782.426 21.651 21.651 0 01-5.883-.124c-.033-.004-.07-.012-.109-.018.405.036.817.059 1.237.062 1.25.007 2.444-.057 3.54-.263 2.953-.549 5.187-2.1 5.81-5.938-.002-.006-.007-.01-.01-.016-.038-.062-.065-.129-.099-.192a4.175 4.175 0 01-.49-1.996c.004-.765.208-1.47.545-2.053-.938-3.854-4.669-6.755-9.182-6.784a10.327 10.327 0 00-3.236.493l-.057.03a9.51 9.51 0 00-2.807 2.472v-2.5a.734.734 0 00-.221-1.437.735.735 0 00-.222 1.437v3.14a8.75 8.75 0 00-1.258 3.317c-.07.43-.12.883-.12 1.322-.003 5.332 1.791 7.137 3.363 7.935.247.125.534.243.834.348h-.035c1.047.907 1.399 2.648 1.703 4.052.306 1.408-.588 1.408-.588 1.408s-.99.299-1.256-1.46c-.265-1.76-1.745-3.887-1.747-3.888-1.391.122-2.781.321-4.152.497a23.434 23.434 0 01-1.811-.122c-.964-.111-1.92.01-2.888.01-.072.004-.148.002-.226 0-.323.435-.84.711-1.416.706l-3.38-.022-1.338-.012h-.629l-1.48-.01-1.66-.01a1.759 1.759 0 01-.742-.17h-.003a1.299 1.299 0 00-.061.11c-.102.232-.05.52.063.737.234.454.694.76 1.181.92.488.158 1.008.189 1.52.217l.918.052c.383.02.797-.03 1.168.064.456.117.91.257 1.359.394.903.273 1.798.57 2.685.888 1.029.37 2.041.778 3.046 1.202.995.418 1.61.715 2.56 1.227.28.153.56.305.839.465 0 0 3.465 1.841 4.444 3.999.729 1.604.98 4.451 1.062 5.808.352.016.769.037.973.03l.009-.164c-.017-.727.867-1.084 2.12-1.024l6.446.154c1.056.05 1.351.495 1.43 1.323.935.007 4.355.013 4.434-.234.1-.312.125-.676.15-1 .04-.499.024-1 .01-1.499-.034-1.12-.067-2.242-.167-3.36-.024-.26-.075-.523-.09-.784l-.25-1.859s8.89 6.806 10.794 8.102a1.6 1.6 0 01.145.11c1.198.843 3.912 1.258 2.732-.65-.294-.346-.698-.52-1.088-.684.581-1.226 2.013-1.056 3.012-1.692.498-.329.907-.985.796-1.648l.002.001zm-30.616-13.84c-1.704-1.016-2.799-2.797-2.799-5.457 0-3.569 3.22-6.442 7.142-6.416a7.53 7.53 0 013.927 1.113c1.873 1.174 3.095 3.147 3.095 5.376 0 5.507-3.221 6.442-7.142 6.416-1.588-.01-3.048-.342-4.222-1.033v.002z"/><path d="M31.465 34.91l-.02-4.564v-.453l-1.78-.012.002.703.021 4.48-5.662.499c-.007.002.233 1.645.233 1.645v.003l.001-.003 5.434-.478.017 3.467.003.659v.455h.44l1.34.012v-.43l-.006-.972-.015-3.348 5.714-.503.256-1.69-5.978.527v.003z"/><path d="M35.285 26.573c-.154-.614-.763-1.093-1.48-1.166-.512-.051-.96.095-1.413.261-.453.167-1.014.376-1.386.768a6.147 6.147 0 00-.628-.614c-.36-.32-.726-.617-1.222-.754-.694-.192-1.435.034-1.804.55-.276.386-.346.878-.214 1.502.204.962.922 2.27 2.523 2.761h.005l1.776.012h-.001c.032-.003.06-.009.091-.012 1.704-.217 2.92-1.093 3.404-1.832.351-.534.465-1.016.35-1.476zm-6.984.304c-.058-.276-.05-.475.02-.574.05-.07.252-.169.515-.097.254.07.49.267.752.5.258.227.611.54.704.785.056.146.029.312-.024.567l-.267 1.333a4.06 4.06 0 01-.161-.142l-.057-.05c-.788-.7-1.314-1.525-1.482-2.323v.001zm5.641.525c-.448.682-1.24 1.26-2.228 1.627l-.072.027c-.045.017-.122.047-.203.073l.239-1.338c.045-.256.08-.42.186-.537.175-.194.62-.359.943-.478.295-.108.56-.199.8-.197.028 0 .055.001.082.004.273.027.425.193.445.276.03.12-.036.306-.192.543zm96.41 3.361a3.35 3.35 0 00-.449-.954 2.36 2.36 0 00-.698-.665 1.712 1.712 0 00-.907-.258h-7.917c-.018 0-.064 0-.139-.103a.576.576 0 01-.107-.353.57.57 0 01.104-.358c.073-.098.124-.098.142-.098h8.719c.203 0 .492-.073.731-.414.169-.24.254-.532.254-.867 0-.334-.085-.626-.254-.867-.24-.34-.53-.413-.731-.413h-8.69c-.323 0-.626.087-.903.26a2.4 2.4 0 00-.688.665 3.358 3.358 0 00-.449.942 3.9 3.9 0 00-.163 1.15c0 .41.056.798.163 1.151.11.357.261.674.449.942.195.278.426.501.688.666.276.171.579.259.901.259h7.946c.016 0 .06 0 .129.096a.65.65 0 01.103.38.564.564 0 01-.099.343c-.069.093-.114.093-.133.093h-8.735c-.2 0-.49.072-.73.413a1.481 1.481 0 00-.255.867c0 .334.086.626.255.867.24.341.53.414.73.414h8.676c.32 0 .622-.083.901-.245.27-.157.507-.378.704-.659.188-.27.34-.588.448-.942.108-.353.163-.74.163-1.15 0-.41-.055-.8-.162-1.16l.003-.002zm21.217-3.486a3.204 3.204 0 00-.458-.946 2.456 2.456 0 00-.702-.662 1.707 1.707 0 00-.907-.257h-8.577c-.201 0-.492.07-.73.413a1.488 1.488 0 00-.254.867c0 .333.086.626.254.867.24.34.529.413.73.413h8.634c.018 0 .063 0 .139.103a.578.578 0 01.107.354c0 .15-.035.268-.102.357-.077.098-.126.098-.144.098h-7.602c-.305 0-.587.082-.839.24a2.267 2.267 0 00-.629.612c-.176.252-.314.55-.408.889-.093.33-.14.684-.14 1.05v1.962c0 .335.086.626.254.867.208.3.577.406.851.406.275 0 .648-.125.849-.401.176-.243.264-.537.264-.872v-1.765c0-.133 0-.534.035-.625.031-.08.077-.114.154-.114h7.17c.339 0 .927-.178 1.347-.505.322-.252.572-.625.703-1.05a3.9 3.9 0 00.163-1.15c0-.41-.055-.798-.163-1.151h.001zm40.096 5.08h-8.046c-.265 0-.468-.062-.621-.187a1.551 1.551 0 01-.408-.523 2.459 2.459 0 01-.215-.72 5.23 5.23 0 01-.062-.762c0-.231.021-.489.062-.763.038-.261.11-.504.215-.72.101-.205.239-.381.41-.523.151-.125.354-.187.619-.187h8.046c.201 0 .492-.072.732-.413.168-.241.253-.534.253-.867 0-.333-.085-.626-.255-.867-.24-.341-.529-.413-.73-.413h-8.347a1.96 1.96 0 00-1.293.478c-.352.295-.655.68-.903 1.14a6.07 6.07 0 00-.551 1.517 7.444 7.444 0 00-.186 1.618c0 .523.06 1.087.178 1.627a6.4 6.4 0 00.519 1.5c.231.462.517.846.849 1.142.36.32.778.484 1.243.484h8.489c.201 0 .492-.073.732-.413.168-.243.254-.534.254-.868 0-.333-.086-.625-.255-.867-.24-.34-.53-.413-.731-.413h.002zm21.548 0h-9.021c-.043 0-.064-.01-.09-.04a.254.254 0 01-.056-.17v-.702h8.849c.201 0 .492-.073.732-.413.169-.242.255-.534.255-.867 0-.334-.086-.625-.255-.867-.24-.341-.529-.414-.732-.414h-9.607c-.391 0-.679.083-.884.252-.222.184-.332.5-.332.967v1.838c0 .439.057.84.173 1.196.114.354.262.663.441.918.184.264.401.474.646.624.256.159.522.239.785.239h9.091c.201 0 .492-.073.732-.413a1.49 1.49 0 00.254-.868c0-.333-.086-.625-.255-.867-.24-.34-.53-.413-.731-.413h.005zm-10.151-4.385h10.151c.201 0 .492-.072.731-.413a1.48 1.48 0 00.254-.867 1.48 1.48 0 00-.254-.867c-.24-.341-.53-.413-.731-.413h-10.151c-.201 0-.492.07-.73.413a1.481 1.481 0 00-.255.867c0 .333.086.627.255.867.238.34.529.413.73.413zm-31.843 5.188a11.363 11.363 0 00-.15-.356l-3.479-6.642a2.286 2.286 0 00-.725-.844 1.7 1.7 0 00-2.02.038 2.496 2.496 0 00-.732.868l-1.73 3.325h-.11v.212l-1.619 3.11c-.133.19-.198.44-.198.765 0 .324.086.626.255.867.24.34.529.413.732.413.229 0 .554-.09.791-.525l1.462-2.768h4.376l1.436 2.735c.22.462.564.558.813.558.201 0 .49-.072.73-.413.169-.241.255-.534.255-.867a1.29 1.29 0 00-.086-.478l-.001.001zm-4.237-3.61h-2.191l.81-1.536c.048-.09.117-.196.207-.313.052-.067.073-.071.071-.073 0 0 .023.005.074.071a3.8 3.8 0 01.222.314l.805 1.533.002.003zm-70.586 9.802h13.237c2.489 0 4.452.822 5.893 2.466 1.439 1.645 2.16 3.896 2.16 6.757 0 1.71-.259 3.239-.778 4.587-.519 1.348-1.261 2.417-2.23 3.206 1.13.69 2.028 1.75 2.696 3.182.668 1.43 1.002 3.067 1.002 4.908 0 1.841-.34 3.477-1.02 4.908-.679 1.431-1.641 2.541-2.886 3.33-1.244.789-2.661 1.184-4.251 1.184H96.394V39.352h.002zm10.991 13.367c.667 0 1.186-.23 1.555-.69.369-.46.553-1.118.553-1.973s-.184-1.513-.553-1.973c-.369-.46-.888-.69-1.555-.69h-2.938v5.327h2.938v-.001zm.45 13.02c.691 0 1.226-.238 1.607-.714.381-.477.57-1.142.57-1.998 0-.857-.191-1.57-.57-2.046-.381-.477-.916-.715-1.607-.715h-3.388v5.475h3.388v-.001zm86.531 6.176c-1.625-1.167-2.87-2.856-3.734-5.064-.863-2.207-1.295-4.831-1.295-7.873V39.345h8.106v19.009c0 3.105.896 4.657 2.691 4.657s2.692-1.552 2.692-4.657V39.345h8.14v19.633c0 3.04-.432 5.664-1.295 7.873-.864 2.208-2.115 3.897-3.751 5.064-1.637 1.167-3.565 1.752-5.784 1.752s-4.143-.585-5.769-1.752h-.001zm21.697-1.638c-1.763-2.042-2.645-4.898-2.645-8.57h7.684c0 1.077.2 1.9.599 2.47.399.57.976.854 1.73.854.643 0 1.141-.182 1.496-.546.354-.363.533-.877.533-1.542 0-.824-.306-1.496-.915-2.018-.61-.522-1.58-.941-2.91-1.258-2.75-.665-4.779-1.851-6.088-3.56-1.309-1.708-1.963-4.018-1.963-6.93 0-3.259.837-5.824 2.512-7.69 1.675-1.868 3.975-2.801 6.902-2.801 1.995 0 3.73.458 5.206 1.377 1.474.918 2.616 2.239 3.426 3.964s1.225 3.743 1.247 6.053h-7.518c0-1.045-.195-1.843-.581-2.398-.389-.553-.938-.83-1.647-.83-.621 0-1.109.19-1.463.57-.356.38-.533.886-.533 1.518 0 .76.284 1.377.849 1.852.565.475 1.548.901 2.943 1.281 2.905.792 5.028 2.026 6.37 3.704 1.342 1.678 2.012 3.94 2.012 6.789 0 3.386-.865 6.028-2.595 7.928-1.731 1.899-4.148 2.849-7.251 2.849-3.104 0-5.638-1.021-7.402-3.063l.002-.003zM184.771 39.81h-7.14l.079 16.351h-.157l-8.499-16.35h-5.87v33.177h7.138l-.078-16.599h.119l8.58 16.6h5.828V39.81zM157.495 52.9c-2.775 3.542-6.435 7.215-10.611 10.62-4.309 3.515-8.782 6.41-12.863 8.404a16.432 16.432 0 009.299 1.63c9.106-1.066 15.628-9.355 14.568-18.515a16.963 16.963 0 00-.393-2.14zM160.445 40.771c-1.088-5.923-11.043-1.387-14.309.313l2.081 1.124c3.554-1.853 6.058-.968 3.244 2.284l-.009-.008c-1.701 2.517-3.476 4.813-5.308 6.787.021.026.043.048.066.074-.551.55-1.123 1.09-1.704 1.618-7.725 7.659-15.612 10.975-17.792 11.794v.001c-3.104 1.657-4.312.28-1.385-3.641l-.717-2.382c-10.352 13.083-4.186 17.867 9.464 10.61 8.04-4.317 15.723-10.656 21.348-17.658 2.319-3.114 5.227-6.938 5.023-10.917l-.002.001z"/><path d="M126.714 64.758c3.15-1.02 8.011-4.07 7.385-3.67-.453-.508-.903-2.264-.903-3.494-.12-7.538 8.065-11.952 12.949-6.323 1.832-1.974 3.609-4.27 5.308-6.787-1.27-1.057-3.234-2.276-3.234-2.276l-2.082-1.124c-11.244-3.775-22.953 6.034-21.525 17.653l.517 1.91s.681 2.722 1.583 4.111h.002z"/></svg><svg viewBox="0 0 107 107" id="user" xmlns="http://www.w3.org/2000/svg"><mask id="ca" maskUnits="userSpaceOnUse" x="0" y="0" width="107" height="107"><circle cx="53.5" cy="53.5" r="53.5"/></mask><g mask="url(#ca)"><circle cx="53.5" cy="53.5" r="53.5"/><path d="M79.185 47.078c0 4.478 2.205 8.11 4.923 8.11.09 0 .18-.014.27-.023 1.484-1.855 2.444-4.784 2.444-8.087 0-3.302-.96-6.232-2.443-8.086-.09-.01-.18-.024-.271-.024-2.718 0-4.923 3.632-4.923 8.11zm-1.15-20.368zM31.512 47.887c-.157 2.973.461 5.759 1.63 8.039-.19-3.193.186-6.534 1.222-9.717 1.796-5.534 5.18-9.396 9.005-10.949a7.457 7.457 0 00-.87-.096c-5.683-.291-10.602 5.406-10.987 12.728v-.005z"/><path d="M84.385 55.166a3.317 3.317 0 001.392-.464c.219-.129.433-.282.637-.458.204-.177.4-.378.585-.598.123-.148.242-.3.356-.468.228-.33.442-.693.627-1.09.285-.592.518-1.247.694-1.955.119-.473.21-.965.27-1.476.03-.254.053-.516.072-.78a14.07 14.07 0 00-.028-1.998 12.67 12.67 0 00-.152-1.137c-.271-1.476-.79-2.776-1.478-3.766a7.128 7.128 0 00-.357-.468c-.185-.22-.38-.42-.584-.597a4.356 4.356 0 00-.637-.46 3.317 3.317 0 00-1.392-.463c1.482 1.855 2.442 4.784 2.442 8.087 0 3.302-.96 6.232-2.442 8.086l-.005.005zM48.801 19.063c14.305.095 26.128 9.286 29.103 21.502.067-.115.133-.24.205-.35.342-.549.727-1.056 1.14-1.524a9.55 9.55 0 01.428-.45 9.82 9.82 0 01.917-.802c.319-.244.651-.468.993-.664a8.403 8.403 0 011.43-.655 28.063 28.063 0 00-1.558-3.532 29.52 29.52 0 00-1.283-2.71 20.51 20.51 0 00-1.003-1.663 15.721 15.721 0 00-1.14-1.5 14.23 14.23 0 00-.628-.68 43.543 43.543 0 00-2.048-1.93 32.725 32.725 0 00-2.005-1.635 32.158 32.158 0 00-.998-.716 25.878 25.878 0 00-4.078-2.29 29.852 29.852 0 00-4.41-1.548 48.195 48.195 0 00-3.692-.832 32.368 32.368 0 00-5.78-.564c-3.54-.024-7.051.607-10.397 1.735a37.598 37.598 0 00-3.46 1.357c-.675.311-1.34.646-1.986 1.014a32.743 32.743 0 0110.255-1.563h-.005z"/><path d="M79.249 38.691a10.76 10.76 0 00-1.139 1.525c.342-.55.726-1.056 1.139-1.525zm1.346-1.252zm2.215 67.393c.395.249.77.497 1.146.755.185.129.37.263.56.397.186.134.371.272.561.42a66.067 66.067 0 002.647 1.941c.88.611 1.768 1.214 2.676 1.792a43.815 43.815 0 002.775 1.634c2.462 1.315 4.52 3.207 6.891 4.646a109.876 109.876 0 0010.422 5.582c.19.091.37.182.551.277.18.096.356.196.537.297.275.157.594.215.889.32.099.033.194.076.285.129.199.1.394.191.584.282a91.763 91.763 0 002.362 1.109c.114.052.214.095.295.133.157.072.242.106.242.106v-.024c-6.04-4.106-34.212-25.68-34.212-25.68l.794 5.894-.005-.01zM16.82 94.536c2.746 1.582 5.37 3.37 7.299 5.845a17.735 17.735 0 012.024 3.355c.333.712.627 1.444.898 2.184.18.497.347.999.5 1.506.47 1.52.855 3.073 1.225 4.607 0 .191 0 .392.005.602 0 .21.01.426.014.65.015.449.034.923.057 1.415.152 2.963.537 6.605 1.141 8.918.556 2.127 1.274 1.892 3.688 1.983.185.005.39.015.594.024-.257-4.301-1.055-13.324-3.365-18.41-3.103-6.843-14.085-12.674-14.085-12.674l.004-.005zM3.196 39.419s.038.01.058.019c-.02-.005-.039-.014-.058-.02zM59.662 72.876c-3.474.645-7.261.856-11.22.832a45.784 45.784 0 01-3.92-.196 68.426 68.426 0 0018.99.45c2.152-.25 3.896-.67 5.65-1.349a29.24 29.24 0 001.644-.702c.485-.23.96-.445 1.474-.722 3.183-1.706 5.398-3.99 6.862-6.83a17.57 17.57 0 001.012-2.39c.147-.425.285-.86.404-1.309.071-.258.119-.559.185-.85.067-.292.148-.579.285-.813.072-.124.257-.267.438-.416a3.35 3.35 0 00.294-.258c.072-.071.124-.143.133-.205a.568.568 0 00-.123-.464 1.301 1.301 0 00-.195-.205 2.687 2.687 0 00-.252-.191c-.18-.125-.385-.24-.58-.354a3.912 3.912 0 01-.518-.349c-.423-.358-.817-.75-1.174-1.17-.356-.421-.684-.87-.974-1.34-1.977 12.16-9.058 17.082-18.415 18.822v.01z"/><path d="M81.023 59.009c.071-.125.256-.268.436-.416-.18.143-.365.291-.436.416zM63.15 32.18c-3.55-2.197-7.827-3.497-12.447-3.526-12.427-.081-22.635 9.023-22.635 20.336 0 8.43 3.47 14.07 8.873 17.296 3.72 2.189 8.345 3.24 13.382 3.273 12.427.082 22.635-2.881 22.635-20.335 0-7.064-3.873-13.315-9.808-17.038v-.005zM34.365 46.204c-1.036 3.183-1.411 6.524-1.221 9.716-1.17-2.28-1.787-5.06-1.63-8.038.38-7.322 5.299-13.019 10.987-12.727.295.014.585.047.87.095-3.826 1.553-7.21 5.42-9.006 10.95v.004zM94.719 76.84l.109-.536c.247-1.166.523-2.49.252-3.814-.542-2.638-3.493-3.804-5.712-4.684a104.076 104.076 0 00-10.127-3.402.78.78 0 01-.105-.034c-1.464 2.839-3.678 5.123-6.862 6.83-.514.272-.989.492-1.474.721-.555.263-1.097.497-1.644.703h.01C70.31 75.1 72.26 79.86 72.383 83.83c.176 5.635 3.403 5.066 3.403 5.066s2.813.33 2.38-4.21c-.337-3.527-.693-7.7-2.224-10.906.903.31 1.797.668 2.676 1.065a48.906 48.906 0 019.718 5.797c1.06.813 1.977 1.898 2.852 3.002.209-.282.432-.564.66-.856.442-.559.903-1.137 1.312-1.768.922-1.41 1.302-2.901 1.554-4.172l.005-.01z"/><path d="M147.484 69.713a52.393 52.393 0 00-1.635-2.045c-7.537-8.966-17.241-11.767-27.725-16.235-11.966-5.11-17.635-14.567-25.2-24.413-4.25-5.534-7.381-11.216-12.956-15.499-5.37-4.124-11.367-7.403-17.725-9.759-12.59-4.664-26.314-5.63-39.592-4.072-36.221 4.25-77.305 26.97-82.119 66.355-1.03 8.426-.698 19.533 2.196 27.557 4.429 12.283 19.475 17.363 33.698 21.22 8.835 2.395 18.078 6.806 19.827 16.584 1.069 5.989-3.66 20.283-4.201 26.262-.813 9.038 1.183 18.41 5.389 26.645a51.384 51.384 0 002.58 4.492 49.96 49.96 0 002 2.868 128.732 128.732 0 0110.865-2.739c3.844-10.151 14.717-44.06 16.96-53.91.148-.645.257-1.19.328-1.615.038-.23.062-.43.076-.588 0-.053 4.943.263 7 .32.029.526.248 1.018.614 1.458.822.984 2.395 1.668 4.234 1.716l3.198.095s17.336.425 17.412.425c1.26 0 3.151-.191 4.082-.75.989-.597 1.692-1.481 1.74-2.351 0 0 3.963.005 5.455 0 .832 0 1.692-.01 2.567-.034a58.958 58.958 0 004.966-.301 37.346 37.346 0 002.205-.306s14.451 16.852 12.64 31.3c-.893 7.106-3.083 17.267-5.084 23.69-.618 1.979-1.217 3.618-1.749 4.689v.005c3.203.764 8.526 2.49 12.926 4.009.219-.114.437-.224.656-.344a101.973 101.973 0 0016.937-11.441c8.816-7.341 16.662-15.91 22.393-25.866 6.135-10.652 11.234-23.083 14.385-34.95 4.69-17.669 1.882-37.685-9.343-52.467v-.005zm-63.1-30.72c.484.042.955.205 1.392.463.218.129.432.282.637.459a5.773 5.773 0 01.941 1.066c.689.989 1.207 2.289 1.478 3.766.066.368.118.75.152 1.137a14.072 14.072 0 01.028 1.998c-.014.263-.038.526-.071.779a11.942 11.942 0 01-.271 1.477 10.161 10.161 0 01-.694 1.954c-.19.392-.4.76-.627 1.09-.114.162-.233.32-.357.468-.185.22-.38.42-.584.598-.204.177-.418.33-.637.459-.437.258-.908.42-1.392.463-.09.01-.18.024-.271.024-2.719 0-4.924-3.632-4.924-8.11 0-4.479 2.206-8.11 4.924-8.11.09 0 .18.014.27.023l.005-.005zm47.066 76.386c-3.16 2.012-7.699 1.477-9.547 5.362 1.235.521 2.518 1.071 3.45 2.17 3.74 6.046-4.862 4.732-8.659 2.06a7.212 7.212 0 01-.461-.349v.024s-.081-.038-.242-.105c-.081-.033-.176-.081-.295-.134-.404-.186-1.026-.473-1.825-.851a46.967 46.967 0 01-.537-.258c-.185-.09-.38-.186-.584-.282a2.157 2.157 0 00-.285-.129c-.295-.105-.618-.162-.889-.32-.181-.1-.357-.201-.537-.296a13.484 13.484 0 00-.551-.277c-.913-.43-1.821-.87-2.723-1.319a108.768 108.768 0 01-7.699-4.264c-2.371-1.438-4.43-3.326-6.89-4.645a42.986 42.986 0 01-2.776-1.634 75.346 75.346 0 01-2.676-1.793 66.044 66.044 0 01-2.647-1.94c-.185-.143-.375-.282-.56-.421-.186-.133-.371-.267-.561-.396a33.389 33.389 0 00-1.146-.755c.048.826.214 1.658.285 2.485.319 3.541.424 7.097.528 10.648.047 1.582.095 3.173-.029 4.751-.08 1.027-.152 2.184-.475 3.168-.256.789-11.096.765-14.052.741-.252-2.624-1.193-4.034-4.534-4.191l-20.43-.488c-3.973-.186-6.772.942-6.72 3.245l-.028.521c-.651.014-1.972-.052-3.084-.095-.21-.01-.409-.02-.594-.024-2.414-.086-3.137.143-3.688-1.984-.604-2.318-.989-5.955-1.14-8.918-.024-.492-.043-.97-.058-1.414l-.014-.65c0-.211-.005-.411-.005-.603-.375-1.534-.76-3.087-1.226-4.607a40.163 40.163 0 00-.499-1.505 24.336 24.336 0 00-.898-2.184 17.672 17.672 0 00-2.024-3.355c-1.93-2.476-4.553-4.264-7.3-5.846a103.77 103.77 0 00-2.661-1.472c-3.003-1.63-4.952-2.57-8.112-3.89C2.863 87.817-.34 86.522-3.6 85.351a177.343 177.343 0 00-8.511-2.815c-1.43-.435-2.861-.88-4.306-1.247-1.178-.301-2.495-.139-3.702-.206-.97-.052-1.944-.11-2.913-.162-1.625-.091-3.27-.187-4.814-.688-1.545-.502-3.008-1.472-3.745-2.916-.356-.693-.518-1.606-.2-2.337.034-.072.105-.2.195-.349a5.497 5.497 0 01-3.084-4.12l-1.297-8.263v-.01l-.822-5.209-1.844-11.747a5.712 5.712 0 01-.062-.626 5.374 5.374 0 01.219-1.788 5.41 5.41 0 011.316-2.251c.204-.21.423-.406.656-.583a5.433 5.433 0 011.14-.664 2.43 2.43 0 01.171-.062 3.42 3.42 0 01.286-.105c.07-.024.147-.043.223-.067.095-.029.19-.053.285-.072.071-.014.147-.033.223-.043.105-.019.214-.033.324-.048.066-.01.128-.019.194-.024a6.18 6.18 0 01.518-.023h.019l11.449.076 2.799.02h.023c-5.08-1.554-7.36-5.703-8.002-8.752-.419-1.978-.195-3.536.68-4.76 1.168-1.634 3.52-2.356 5.716-1.744 1.573.435 2.728 1.38 3.873 2.39.642.568 1.364 1.213 1.991 1.945 1.179-1.243 2.956-1.903 4.392-2.433 1.435-.53 2.856-.99 4.48-.827 2.273.23 4.202 1.744 4.691 3.694.366 1.458 0 2.988-1.107 4.68-1.568 2.384-5.527 5.218-11.077 5.844h.004l3.95.024 10.816.072c.18 0 .351.014.527.029.033 0 .071.01.105.01.356.042.698.119 1.026.224a5.59 5.59 0 011.031.45h.01a5.619 5.619 0 012.129 2.16 5.41 5.41 0 01.608 3.455l-1.183 7.8h-.005l-.812 5.352h.004l-1.82 12.03a5.55 5.55 0 01-.988 2.4c-.015.018-.029.032-.043.051.252 0 .494.005.718 0 3.07 0 6.092-.387 9.152-.033 1.906.22 3.826.315 5.741.387 4.344-.56 8.749-1.185 13.16-1.577 0 0 4.694 6.743 5.536 12.32.84 5.578 3.982 4.632 3.982 4.632s2.832 0 1.863-4.464c-.965-4.45-2.082-9.97-5.399-12.842H37c-.95-.34-1.859-.707-2.643-1.104-4.975-2.528-10.669-8.244-10.659-25.148 0-1.391.162-2.83.38-4.192a27.862 27.862 0 012.642-8.153 28.2 28.2 0 011.345-2.361v-9.95a2.326 2.326 0 01-1.644-2.218c0-1.29 1.05-2.337 2.348-2.337a2.342 2.342 0 012.347 2.337c0 1.047-.694 1.916-1.644 2.218v7.924a30.14 30.14 0 018.896-7.834c.057-.033.119-.062.18-.095a25.876 25.876 0 011.987-1.013 32.14 32.14 0 012.058-.856c.466-.177.931-.34 1.402-.502 3.346-1.128 6.857-1.758 10.398-1.735 1.977.015 3.911.21 5.779.564 1.302.244 2.523.517 3.692.832 1.559.42 3.013.922 4.41 1.548.699.311 1.388.655 2.063 1.038.68.377 1.35.793 2.015 1.252a31.361 31.361 0 013.003 2.351c.338.296.675.602 1.017.927.342.32.684.655 1.031 1.004.219.22.428.444.628.678.404.469.784.976 1.14 1.506.357.53.69 1.085 1.003 1.663.47.865.893 1.773 1.283 2.71.147.287.295.573.432.86.419.87.799 1.759 1.127 2.672a8.403 8.403 0 00-1.43.655 9.01 9.01 0 00-.994.664 9.698 9.698 0 00-.917.803 10.766 10.766 0 00-1.568 1.974c-.072.114-.133.234-.205.349-1.069 1.844-1.71 4.081-1.73 6.504a13.26 13.26 0 001.554 6.328c.11.2.195.416.314.607.01.019.024.033.033.052.29.469.618.918.975 1.339.356.42.75.812 1.173 1.17.143.12.323.235.518.35.195.114.395.234.58.353.09.062.176.124.252.191.076.067.143.134.195.206.104.143.157.296.123.463a.47.47 0 01-.133.206c-.08.081-.185.172-.294.258-.18.143-.366.291-.438.416-.137.234-.218.52-.285.812-.066.292-.114.593-.185.85-.123.45-.257.88-.404 1.31 4.063 1.162 7.618 2.361 10.83 3.647 3.612 1.453 5.75 3.12 6.74 5.252.993 2.141.76 5.257-.695 9.258-.48 1.319-1.268 2.475-2.314 3.809-.104.134-.223.277-.342.425-.413.502-.88 1.075-1.221 1.711a977.837 977.837 0 013.991 4.827c3.631 4.416 7.243 8.847 10.864 13.272 2.029 2.481 3.959 5.162 6.211 7.451.937 1.859 1.573 3.838 1.958 5.898.152.329.323-.225.361-.368.666-1.754.932-4.627.248-6.118 3.849-3.479 15.383-8.072 17.184-.889.351 2.108-.946 4.187-2.524 5.224l.01-.005z"/><path d="M133.975 110.151c-1.802-7.183-13.34-2.585-17.185.889.685 1.491.419 4.364-.247 6.118-.042.143-.209.697-.361.368-.385-2.06-1.022-4.034-1.958-5.898-2.252-2.289-4.182-4.975-6.211-7.451-3.621-4.425-7.233-8.856-10.864-13.272-1.326-1.61-2.656-3.221-3.992-4.827.343-.64.803-1.209 1.222-1.71.118-.149.237-.287.342-.426 1.04-1.333 1.834-2.49 2.314-3.81 1.45-3.995 1.683-7.11.694-9.257-.984-2.131-3.127-3.8-6.739-5.252-3.212-1.29-6.767-2.485-10.83-3.647-.285.837-.623 1.63-1.012 2.39.047.014.085.029.104.034 3.522.989 6.93 2.136 10.127 3.402 2.22.88 5.17 2.05 5.712 4.684.276 1.329-.004 2.648-.251 3.814l-.11.535c-.252 1.271-.632 2.763-1.554 4.172-.408.631-.87 1.205-1.311 1.769-.233.291-.452.573-.66.855-.875-1.104-1.788-2.189-2.852-3.001a48.903 48.903 0 00-9.719-5.797 31.807 31.807 0 00-2.675-1.066c1.53 3.207 1.887 7.384 2.224 10.906.432 4.545-2.38 4.21-2.38 4.21s-3.232.57-3.403-5.065c-.124-3.967-2.073-8.732-3.218-11.208h-.01c-1.753.679-3.497 1.095-5.65 1.348a68.618 68.618 0 01-18.643-.392c-.104-.014-.223-.038-.347-.057a47.91 47.91 0 003.92.196c3.96.024 7.747-.182 11.22-.832 9.358-1.74 16.439-6.657 18.416-18.82-.01-.02-.024-.034-.033-.053-.12-.196-.205-.406-.314-.607a13.234 13.234 0 01-1.554-6.328c.014-2.423.66-4.66 1.73-6.504-2.975-12.216-14.799-21.411-29.103-21.502a32.746 32.746 0 00-10.255 1.563c-.057.033-.12.062-.181.095a30.138 30.138 0 00-8.896 7.833v-7.924a2.326 2.326 0 001.644-2.217c0-1.29-1.05-2.337-2.348-2.337a2.342 2.342 0 00-2.347 2.337c0 1.047.694 1.916 1.644 2.217v9.95a27.717 27.717 0 00-3.987 10.514c-.219 1.363-.38 2.802-.38 4.192-.01 16.9 5.679 22.62 10.66 25.149.783.397 1.69.77 2.641 1.104H36.9c3.317 2.872 4.434 8.392 5.399 12.842.97 4.464-1.863 4.464-1.863 4.464s-3.142.946-3.983-4.631c-.84-5.578-5.531-12.317-5.536-12.321-4.41.387-8.816 1.018-13.16 1.577-1.919-.072-3.834-.167-5.74-.387-3.056-.354-6.083.033-9.153.033-.228.01-.47.005-.717 0-1.404 0-3.393.014-5.218 0l-9.98 2.165-4.244-.038h-1.991l-4.69-.029-5.261-.033a5.57 5.57 0 01-2.353-.54h-.01c-.09.148-.16.277-.194.349-.323.736-.157 1.648.2 2.337.741 1.438 2.2 2.408 3.744 2.915 1.545.502 3.194.597 4.815.688.969.053 1.943.11 2.913.163 1.211.067 2.523-.096 3.702.205 1.444.368 2.88.813 4.305 1.248 2.861.865 5.698 1.806 8.511 2.815 3.26 1.17 6.468 2.466 9.652 3.809 3.156 1.324 5.104 2.265 8.113 3.89.888.483 1.777.965 2.66 1.472 0 0 10.983 5.835 14.086 12.674 2.31 5.086 3.108 14.109 3.365 18.41 1.117.048 2.438.115 3.084.096l.029-.521c-.052-2.304 2.747-3.436 6.72-3.245l20.43.487c3.345.158 4.281 1.568 4.533 4.192 2.96.023 13.8.043 14.053-.741.318-.99.394-2.141.475-3.169.123-1.582.076-3.168.028-4.75-.104-3.551-.209-7.107-.527-10.649-.076-.826-.238-1.658-.285-2.485l-.794-5.893s28.176 21.569 34.212 25.679c.194.134.347.249.461.349 3.797 2.672 12.398 3.986 8.658-2.06-.931-1.099-2.214-1.649-3.45-2.169 1.844-3.886 6.382-3.346 9.547-5.363 1.578-1.042 2.875-3.121 2.524-5.223l.005.004zM36.943 66.287c-5.403-3.22-8.873-8.865-8.873-17.296 0-11.312 10.208-20.417 22.635-20.335 4.624.028 8.897 1.328 12.447 3.527 5.935 3.723 9.808 9.974 9.808 17.038 0 17.453-10.208 20.417-22.635 20.335-5.032-.033-9.661-1.084-13.382-3.273v.004z"/></g></svg><svg viewBox="0 0 107 107" id="userOther" xmlns="http://www.w3.org/2000/svg"><mask id="da" maskUnits="userSpaceOnUse" x="0" y="0" width="107" height="107"><circle cx="53.5" cy="53.5" r="53.5"/></mask><g mask="url(#da)"><circle cx="53.5" cy="53.5" r="53.5"/><path d="M79.185 47.078c0 4.478 2.205 8.11 4.923 8.11.09 0 .18-.014.27-.023 1.484-1.855 2.444-4.784 2.444-8.087 0-3.302-.96-6.232-2.443-8.086-.09-.01-.18-.024-.271-.024-2.718 0-4.923 3.632-4.923 8.11zm-1.15-20.368zM31.512 47.887c-.157 2.973.461 5.759 1.63 8.039-.19-3.193.186-6.534 1.222-9.717 1.796-5.534 5.18-9.396 9.005-10.949a7.457 7.457 0 00-.87-.096c-5.683-.291-10.602 5.406-10.987 12.728v-.005z"/><path d="M84.385 55.166a3.317 3.317 0 001.392-.464c.219-.129.433-.282.637-.458.204-.177.4-.378.585-.598.123-.148.242-.3.356-.468.228-.33.442-.693.627-1.09.285-.592.518-1.247.694-1.955.119-.473.21-.965.27-1.476.03-.254.053-.516.072-.78a14.07 14.07 0 00-.028-1.998 12.67 12.67 0 00-.152-1.137c-.271-1.476-.79-2.776-1.478-3.766a7.128 7.128 0 00-.357-.468c-.185-.22-.38-.42-.584-.597a4.356 4.356 0 00-.637-.46 3.317 3.317 0 00-1.392-.463c1.482 1.855 2.442 4.784 2.442 8.087 0 3.302-.96 6.232-2.442 8.086l-.005.005zM48.801 19.063c14.305.095 26.128 9.286 29.103 21.502.067-.115.133-.24.205-.35.342-.549.727-1.056 1.14-1.524a9.55 9.55 0 01.428-.45 9.82 9.82 0 01.917-.802c.319-.244.651-.468.993-.664a8.403 8.403 0 011.43-.655 28.063 28.063 0 00-1.558-3.532 29.52 29.52 0 00-1.283-2.71 20.51 20.51 0 00-1.003-1.663 15.721 15.721 0 00-1.14-1.5 14.23 14.23 0 00-.628-.68 43.543 43.543 0 00-2.048-1.93 32.725 32.725 0 00-2.005-1.635 32.158 32.158 0 00-.998-.716 25.878 25.878 0 00-4.078-2.29 29.852 29.852 0 00-4.41-1.548 48.195 48.195 0 00-3.692-.832 32.368 32.368 0 00-5.78-.564c-3.54-.024-7.051.607-10.397 1.735a37.598 37.598 0 00-3.46 1.357c-.675.311-1.34.646-1.986 1.014a32.743 32.743 0 0110.255-1.563h-.005z"/><path d="M79.249 38.691a10.76 10.76 0 00-1.139 1.525c.342-.55.726-1.056 1.139-1.525zm1.346-1.252zm2.215 67.393c.395.249.77.497 1.146.755.185.129.37.263.56.397.186.134.371.272.561.42a66.067 66.067 0 002.647 1.941c.88.611 1.768 1.214 2.676 1.792a43.815 43.815 0 002.775 1.634c2.462 1.315 4.52 3.207 6.891 4.646a109.876 109.876 0 0010.422 5.582c.19.091.37.182.551.277.18.096.356.196.537.297.275.157.594.215.889.32.099.033.194.076.285.129.199.1.394.191.584.282a91.763 91.763 0 002.362 1.109c.114.052.214.095.295.133.157.072.242.106.242.106v-.024c-6.04-4.106-34.212-25.68-34.212-25.68l.794 5.894-.005-.01zM16.82 94.536c2.746 1.582 5.37 3.37 7.299 5.845a17.735 17.735 0 012.024 3.355c.333.712.627 1.444.898 2.184.18.497.347.999.5 1.506.47 1.52.855 3.073 1.225 4.607 0 .191 0 .392.005.602 0 .21.01.426.014.65.015.449.034.923.057 1.415.152 2.963.537 6.605 1.141 8.918.556 2.127 1.274 1.892 3.688 1.983.185.005.39.015.594.024-.257-4.301-1.055-13.324-3.365-18.41-3.103-6.843-14.085-12.674-14.085-12.674l.004-.005zM3.196 39.419s.038.01.058.019c-.02-.005-.039-.014-.058-.02zM59.662 72.876c-3.474.645-7.261.856-11.22.832a45.784 45.784 0 01-3.92-.196 68.426 68.426 0 0018.99.45c2.152-.25 3.896-.67 5.65-1.349a29.24 29.24 0 001.644-.702c.485-.23.96-.445 1.474-.722 3.183-1.706 5.398-3.99 6.862-6.83a17.57 17.57 0 001.012-2.39c.147-.425.285-.86.404-1.309.071-.258.119-.559.185-.85.067-.292.148-.579.285-.813.072-.124.257-.267.438-.416a3.35 3.35 0 00.294-.258c.072-.071.124-.143.133-.205a.568.568 0 00-.123-.464 1.301 1.301 0 00-.195-.205 2.687 2.687 0 00-.252-.191c-.18-.125-.385-.24-.58-.354a3.912 3.912 0 01-.518-.349c-.423-.358-.817-.75-1.174-1.17-.356-.421-.684-.87-.974-1.34-1.977 12.16-9.058 17.082-18.415 18.822v.01z"/><path d="M81.023 59.009c.071-.125.256-.268.436-.416-.18.143-.365.291-.436.416zM63.15 32.18c-3.55-2.197-7.827-3.497-12.447-3.526-12.427-.081-22.635 9.023-22.635 20.336 0 8.43 3.47 14.07 8.873 17.296 3.72 2.189 8.345 3.24 13.382 3.273 12.427.082 22.635-2.881 22.635-20.335 0-7.064-3.873-13.315-9.808-17.038v-.005zM34.365 46.204c-1.036 3.183-1.411 6.524-1.221 9.716-1.17-2.28-1.787-5.06-1.63-8.038.38-7.322 5.299-13.019 10.987-12.727.295.014.585.047.87.095-3.826 1.553-7.21 5.42-9.006 10.95v.004zM94.719 76.84l.109-.536c.247-1.166.523-2.49.252-3.814-.542-2.638-3.493-3.804-5.712-4.684a104.076 104.076 0 00-10.127-3.402.78.78 0 01-.105-.034c-1.464 2.839-3.678 5.123-6.862 6.83-.514.272-.989.492-1.474.721-.555.263-1.097.497-1.644.703h.01C70.31 75.1 72.26 79.86 72.383 83.83c.176 5.635 3.403 5.066 3.403 5.066s2.813.33 2.38-4.21c-.337-3.527-.693-7.7-2.224-10.906.903.31 1.797.668 2.676 1.065a48.906 48.906 0 019.718 5.797c1.06.813 1.977 1.898 2.852 3.002.209-.282.432-.564.66-.856.442-.559.903-1.137 1.312-1.768.922-1.41 1.302-2.901 1.554-4.172l.005-.01z"/><path d="M147.484 69.713a52.393 52.393 0 00-1.635-2.045c-7.537-8.966-17.241-11.767-27.725-16.235-11.966-5.11-17.635-14.567-25.2-24.413-4.25-5.534-7.381-11.216-12.956-15.499-5.37-4.124-11.367-7.403-17.725-9.759-12.59-4.664-26.314-5.63-39.592-4.072-36.221 4.25-77.305 26.97-82.119 66.355-1.03 8.426-.698 19.533 2.196 27.557 4.429 12.283 19.475 17.363 33.698 21.22 8.835 2.395 18.078 6.806 19.827 16.584 1.069 5.989-3.66 20.283-4.201 26.262-.813 9.038 1.183 18.41 5.389 26.645a51.384 51.384 0 002.58 4.492 49.96 49.96 0 002 2.868 128.732 128.732 0 0110.865-2.739c3.844-10.151 14.717-44.06 16.96-53.91.148-.645.257-1.19.328-1.615.038-.23.062-.43.076-.588 0-.053 4.943.263 7 .32.029.526.248 1.018.614 1.458.822.984 2.395 1.668 4.234 1.716l3.198.095s17.336.425 17.412.425c1.26 0 3.151-.191 4.082-.75.989-.597 1.692-1.481 1.74-2.351 0 0 3.963.005 5.455 0 .832 0 1.692-.01 2.567-.034a58.958 58.958 0 004.966-.301 37.346 37.346 0 002.205-.306s14.451 16.852 12.64 31.3c-.893 7.106-3.083 17.267-5.084 23.69-.618 1.979-1.217 3.618-1.749 4.689v.005c3.203.764 8.526 2.49 12.926 4.009.219-.114.437-.224.656-.344a101.973 101.973 0 0016.937-11.441c8.816-7.341 16.662-15.91 22.393-25.866 6.135-10.652 11.234-23.083 14.385-34.95 4.69-17.669 1.882-37.685-9.343-52.467v-.005zm-63.1-30.72c.484.042.955.205 1.392.463.218.129.432.282.637.459a5.773 5.773 0 01.941 1.066c.689.989 1.207 2.289 1.478 3.766.066.368.118.75.152 1.137a14.072 14.072 0 01.028 1.998c-.014.263-.038.526-.071.779a11.942 11.942 0 01-.271 1.477 10.161 10.161 0 01-.694 1.954c-.19.392-.4.76-.627 1.09-.114.162-.233.32-.357.468-.185.22-.38.42-.584.598-.204.177-.418.33-.637.459-.437.258-.908.42-1.392.463-.09.01-.18.024-.271.024-2.719 0-4.924-3.632-4.924-8.11 0-4.479 2.206-8.11 4.924-8.11.09 0 .18.014.27.023l.005-.005zm47.066 76.386c-3.16 2.012-7.699 1.477-9.547 5.362 1.235.521 2.518 1.071 3.45 2.17 3.74 6.046-4.862 4.732-8.659 2.06a7.212 7.212 0 01-.461-.349v.024s-.081-.038-.242-.105c-.081-.033-.176-.081-.295-.134-.404-.186-1.026-.473-1.825-.851a46.967 46.967 0 01-.537-.258c-.185-.09-.38-.186-.584-.282a2.157 2.157 0 00-.285-.129c-.295-.105-.618-.162-.889-.32-.181-.1-.357-.201-.537-.296a13.484 13.484 0 00-.551-.277c-.913-.43-1.821-.87-2.723-1.319a108.768 108.768 0 01-7.699-4.264c-2.371-1.438-4.43-3.326-6.89-4.645a42.986 42.986 0 01-2.776-1.634 75.346 75.346 0 01-2.676-1.793 66.044 66.044 0 01-2.647-1.94c-.185-.143-.375-.282-.56-.421-.186-.133-.371-.267-.561-.396a33.389 33.389 0 00-1.146-.755c.048.826.214 1.658.285 2.485.319 3.541.424 7.097.528 10.648.047 1.582.095 3.173-.029 4.751-.08 1.027-.152 2.184-.475 3.168-.256.789-11.096.765-14.052.741-.252-2.624-1.193-4.034-4.534-4.191l-20.43-.488c-3.973-.186-6.772.942-6.72 3.245l-.028.521c-.651.014-1.972-.052-3.084-.095-.21-.01-.409-.02-.594-.024-2.414-.086-3.137.143-3.688-1.984-.604-2.318-.989-5.955-1.14-8.918-.024-.492-.043-.97-.058-1.414l-.014-.65c0-.211-.005-.411-.005-.603-.375-1.534-.76-3.087-1.226-4.607a40.163 40.163 0 00-.499-1.505 24.336 24.336 0 00-.898-2.184 17.672 17.672 0 00-2.024-3.355c-1.93-2.476-4.553-4.264-7.3-5.846a103.77 103.77 0 00-2.661-1.472c-3.003-1.63-4.952-2.57-8.112-3.89C2.863 87.817-.34 86.522-3.6 85.351a177.343 177.343 0 00-8.511-2.815c-1.43-.435-2.861-.88-4.306-1.247-1.178-.301-2.495-.139-3.702-.206-.97-.052-1.944-.11-2.913-.162-1.625-.091-3.27-.187-4.814-.688-1.545-.502-3.008-1.472-3.745-2.916-.356-.693-.518-1.606-.2-2.337.034-.072.105-.2.195-.349a5.497 5.497 0 01-3.084-4.12l-1.297-8.263v-.01l-.822-5.209-1.844-11.747a5.712 5.712 0 01-.062-.626 5.374 5.374 0 01.219-1.788 5.41 5.41 0 011.316-2.251c.204-.21.423-.406.656-.583a5.433 5.433 0 011.14-.664 2.43 2.43 0 01.171-.062 3.42 3.42 0 01.286-.105c.07-.024.147-.043.223-.067.095-.029.19-.053.285-.072.071-.014.147-.033.223-.043.105-.019.214-.033.324-.048.066-.01.128-.019.194-.024a6.18 6.18 0 01.518-.023h.019l11.449.076 2.799.02h.023c-5.08-1.554-7.36-5.703-8.002-8.752-.419-1.978-.195-3.536.68-4.76 1.168-1.634 3.52-2.356 5.716-1.744 1.573.435 2.728 1.38 3.873 2.39.642.568 1.364 1.213 1.991 1.945 1.179-1.243 2.956-1.903 4.392-2.433 1.435-.53 2.856-.99 4.48-.827 2.273.23 4.202 1.744 4.691 3.694.366 1.458 0 2.988-1.107 4.68-1.568 2.384-5.527 5.218-11.077 5.844h.004l3.95.024 10.816.072c.18 0 .351.014.527.029.033 0 .071.01.105.01.356.042.698.119 1.026.224a5.59 5.59 0 011.031.45h.01a5.619 5.619 0 012.129 2.16 5.41 5.41 0 01.608 3.455l-1.183 7.8h-.005l-.812 5.352h.004l-1.82 12.03a5.55 5.55 0 01-.988 2.4c-.015.018-.029.032-.043.051.252 0 .494.005.718 0 3.07 0 6.092-.387 9.152-.033 1.906.22 3.826.315 5.741.387 4.344-.56 8.749-1.185 13.16-1.577 0 0 4.694 6.743 5.536 12.32.84 5.578 3.982 4.632 3.982 4.632s2.832 0 1.863-4.464c-.965-4.45-2.082-9.97-5.399-12.842H37c-.95-.34-1.859-.707-2.643-1.104-4.975-2.528-10.669-8.244-10.659-25.148 0-1.391.162-2.83.38-4.192a27.862 27.862 0 012.642-8.153 28.2 28.2 0 011.345-2.361v-9.95a2.326 2.326 0 01-1.644-2.218c0-1.29 1.05-2.337 2.348-2.337a2.342 2.342 0 012.347 2.337c0 1.047-.694 1.916-1.644 2.218v7.924a30.14 30.14 0 018.896-7.834c.057-.033.119-.062.18-.095a25.876 25.876 0 011.987-1.013 32.14 32.14 0 012.058-.856c.466-.177.931-.34 1.402-.502 3.346-1.128 6.857-1.758 10.398-1.735 1.977.015 3.911.21 5.779.564 1.302.244 2.523.517 3.692.832 1.559.42 3.013.922 4.41 1.548.699.311 1.388.655 2.063 1.038.68.377 1.35.793 2.015 1.252a31.361 31.361 0 013.003 2.351c.338.296.675.602 1.017.927.342.32.684.655 1.031 1.004.219.22.428.444.628.678.404.469.784.976 1.14 1.506.357.53.69 1.085 1.003 1.663.47.865.893 1.773 1.283 2.71.147.287.295.573.432.86.419.87.799 1.759 1.127 2.672a8.403 8.403 0 00-1.43.655 9.01 9.01 0 00-.994.664 9.698 9.698 0 00-.917.803 10.766 10.766 0 00-1.568 1.974c-.072.114-.133.234-.205.349-1.069 1.844-1.71 4.081-1.73 6.504a13.26 13.26 0 001.554 6.328c.11.2.195.416.314.607.01.019.024.033.033.052.29.469.618.918.975 1.339.356.42.75.812 1.173 1.17.143.12.323.235.518.35.195.114.395.234.58.353.09.062.176.124.252.191.076.067.143.134.195.206.104.143.157.296.123.463a.47.47 0 01-.133.206c-.08.081-.185.172-.294.258-.18.143-.366.291-.438.416-.137.234-.218.52-.285.812-.066.292-.114.593-.185.85-.123.45-.257.88-.404 1.31 4.063 1.162 7.618 2.361 10.83 3.647 3.612 1.453 5.75 3.12 6.74 5.252.993 2.141.76 5.257-.695 9.258-.48 1.319-1.268 2.475-2.314 3.809-.104.134-.223.277-.342.425-.413.502-.88 1.075-1.221 1.711a977.837 977.837 0 013.991 4.827c3.631 4.416 7.243 8.847 10.864 13.272 2.029 2.481 3.959 5.162 6.211 7.451.937 1.859 1.573 3.838 1.958 5.898.152.329.323-.225.361-.368.666-1.754.932-4.627.248-6.118 3.849-3.479 15.383-8.072 17.184-.889.351 2.108-.946 4.187-2.524 5.224l.01-.005z"/><path d="M133.975 110.151c-1.802-7.183-13.34-2.585-17.185.889.685 1.491.419 4.364-.247 6.118-.042.143-.209.697-.361.368-.385-2.06-1.022-4.034-1.958-5.898-2.252-2.289-4.182-4.975-6.211-7.451-3.621-4.425-7.233-8.856-10.864-13.272-1.326-1.61-2.656-3.221-3.992-4.827.343-.64.803-1.209 1.222-1.71.118-.149.237-.287.342-.426 1.04-1.333 1.834-2.49 2.314-3.81 1.45-3.995 1.683-7.11.694-9.257-.984-2.131-3.127-3.8-6.739-5.252-3.212-1.29-6.767-2.485-10.83-3.647-.285.837-.623 1.63-1.012 2.39.047.014.085.029.104.034 3.522.989 6.93 2.136 10.127 3.402 2.22.88 5.17 2.05 5.712 4.684.276 1.329-.004 2.648-.251 3.814l-.11.535c-.252 1.271-.632 2.763-1.554 4.172-.408.631-.87 1.205-1.311 1.769-.233.291-.452.573-.66.855-.875-1.104-1.788-2.189-2.852-3.001a48.903 48.903 0 00-9.719-5.797 31.807 31.807 0 00-2.675-1.066c1.53 3.207 1.887 7.384 2.224 10.906.432 4.545-2.38 4.21-2.38 4.21s-3.232.57-3.403-5.065c-.124-3.967-2.073-8.732-3.218-11.208h-.01c-1.753.679-3.497 1.095-5.65 1.348a68.618 68.618 0 01-18.643-.392c-.104-.014-.223-.038-.347-.057a47.91 47.91 0 003.92.196c3.96.024 7.747-.182 11.22-.832 9.358-1.74 16.439-6.657 18.416-18.82-.01-.02-.024-.034-.033-.053-.12-.196-.205-.406-.314-.607a13.234 13.234 0 01-1.554-6.328c.014-2.423.66-4.66 1.73-6.504-2.975-12.216-14.799-21.411-29.103-21.502a32.746 32.746 0 00-10.255 1.563c-.057.033-.12.062-.181.095a30.138 30.138 0 00-8.896 7.833v-7.924a2.326 2.326 0 001.644-2.217c0-1.29-1.05-2.337-2.348-2.337a2.342 2.342 0 00-2.347 2.337c0 1.047.694 1.916 1.644 2.217v9.95a27.717 27.717 0 00-3.987 10.514c-.219 1.363-.38 2.802-.38 4.192-.01 16.9 5.679 22.62 10.66 25.149.783.397 1.69.77 2.641 1.104H36.9c3.317 2.872 4.434 8.392 5.399 12.842.97 4.464-1.863 4.464-1.863 4.464s-3.142.946-3.983-4.631c-.84-5.578-5.531-12.317-5.536-12.321-4.41.387-8.816 1.018-13.16 1.577-1.919-.072-3.834-.167-5.74-.387-3.056-.354-6.083.033-9.153.033-.228.01-.47.005-.717 0-1.404 0-3.393.014-5.218 0l-9.98 2.165-4.244-.038h-1.991l-4.69-.029-5.261-.033a5.57 5.57 0 01-2.353-.54h-.01c-.09.148-.16.277-.194.349-.323.736-.157 1.648.2 2.337.741 1.438 2.2 2.408 3.744 2.915 1.545.502 3.194.597 4.815.688.969.053 1.943.11 2.913.163 1.211.067 2.523-.096 3.702.205 1.444.368 2.88.813 4.305 1.248 2.861.865 5.698 1.806 8.511 2.815 3.26 1.17 6.468 2.466 9.652 3.809 3.156 1.324 5.104 2.265 8.113 3.89.888.483 1.777.965 2.66 1.472 0 0 10.983 5.835 14.086 12.674 2.31 5.086 3.108 14.109 3.365 18.41 1.117.048 2.438.115 3.084.096l.029-.521c-.052-2.304 2.747-3.436 6.72-3.245l20.43.487c3.345.158 4.281 1.568 4.533 4.192 2.96.023 13.8.043 14.053-.741.318-.99.394-2.141.475-3.169.123-1.582.076-3.168.028-4.75-.104-3.551-.209-7.107-.527-10.649-.076-.826-.238-1.658-.285-2.485l-.794-5.893s28.176 21.569 34.212 25.679c.194.134.347.249.461.349 3.797 2.672 12.398 3.986 8.658-2.06-.931-1.099-2.214-1.649-3.45-2.169 1.844-3.886 6.382-3.346 9.547-5.363 1.578-1.042 2.875-3.121 2.524-5.223l.005.004zM36.943 66.287c-5.403-3.22-8.873-8.865-8.873-17.296 0-11.312 10.208-20.417 22.635-20.335 4.624.028 8.897 1.328 12.447 3.527 5.935 3.723 9.808 9.974 9.808 17.038 0 17.453-10.208 20.417-22.635 20.335-5.032-.033-9.661-1.084-13.382-3.273v.004z"/></g></svg></svg>